#N canvas 805 239 568 551 10;
#X floatatom 112 60 5 0 0 0 - - -;
#X floatatom 186 60 5 0 0 0 - - -;
#X obj 21 26 inlet;
#X obj 112 26 inlet;
#X obj 186 26 inlet;
#X obj 22 451 outlet;
#X obj 168 -53 loadbang;
#X obj 88 -9 f \$1;
#X obj 168 -9 f \$2;
#X obj 22 341 spigot;
#X obj 55 100 <= \$1;
#X obj 55 220 >= \$1;
#X obj 22 254 spigot;
#X floatatom 156 259 5 0 0 0 - - -;
#X floatatom 22 284 5 0 0 0 - - -;
#X floatatom 22 180 5 0 0 0 - - -;
#X floatatom 22 60 5 0 0 0 - - -;
#X msg 114 391 0;
#X obj 22 137 spigot;
#X floatatom 114 259 5 0 0 0 - - -;
#X obj 114 285 ==;
#X floatatom 114 314 5 0 0 0 - - -;
#X obj 114 363 != 1;
#X obj 97 422 spigot;
#X obj 240 26 inlet;
#X floatatom 241 60 5 0 0 0 - - -;
#X obj 221 -9 f \$2;
#X text 219 221 between lets numbers thru within a range;
#X text 219 251 inlet 3 high range - or second creation arg;
#X text 219 231 inlet 1 = input;
#X text 219 241 inlet 2 low range - or 1st creation arg;
#X text 219 261 inlet 4 1 = 0 when out of range - or 3rd creation arg
;
#X text 223 301 Dave Adams (Balwyn) 2014;
#X connect 0 0 11 1;
#X connect 1 0 10 1;
#X connect 2 0 16 0;
#X connect 3 0 0 0;
#X connect 4 0 1 0;
#X connect 6 0 7 0;
#X connect 6 0 8 0;
#X connect 6 0 26 0;
#X connect 7 0 0 0;
#X connect 8 0 1 0;
#X connect 9 0 5 0;
#X connect 10 0 18 1;
#X connect 10 0 19 0;
#X connect 11 0 12 1;
#X connect 11 0 13 0;
#X connect 12 0 14 0;
#X connect 13 0 20 1;
#X connect 14 0 9 0;
#X connect 15 0 11 0;
#X connect 15 0 12 0;
#X connect 16 0 10 0;
#X connect 16 0 18 0;
#X connect 17 0 23 0;
#X connect 18 0 15 0;
#X connect 19 0 20 0;
#X connect 20 0 21 0;
#X connect 21 0 9 1;
#X connect 21 0 22 0;
#X connect 22 0 17 0;
#X connect 23 0 5 0;
#X connect 24 0 25 0;
#X connect 25 0 23 1;
#X connect 26 0 25 0;
