#N canvas 1 58 868 539 10;
#X obj 161 60 inlet;
#X obj 211 228 s ion\$1db;
#X obj 41 227 s ion\$1;
#X obj 163 104 change;
#X obj 221 85 sel 0;
#X obj 222 132 t b;
#X obj 163 150 b;
#X obj 91 227 s ion\$1t;
#X obj 362 284 s ion\$1hold;
#X obj 326 166 timer;
#X obj 516 84 b;
#X obj 324 203 moses 1000;
#X obj 368 253 t b;
#X obj 222 108 input.double.click 400;
#X connect 0 0 3 0;
#X connect 3 0 4 0;
#X connect 3 0 2 0;
#X connect 4 0 6 0;
#X connect 4 0 9 0;
#X connect 4 0 13 0;
#X connect 4 1 10 0;
#X connect 5 0 1 0;
#X connect 6 0 7 0;
#X connect 9 0 11 0;
#X connect 10 0 9 1;
#X connect 11 1 12 0;
#X connect 12 0 8 0;
#X connect 13 0 5 0;
