#N canvas 1 58 868 539 10;
#X obj 166 53 inlet;
#X obj 489 403 s ion\$1db;
#X obj 427 300 s ion\$1;
#X obj 490 263 change;
#X obj 486 304 sel 0;
#X obj 487 351 t b;
#X obj 428 369 b;
#X obj 427 401 s ion\$1t;
#X obj 586 433 s ion\$1hold;
#X obj 526 355 timer;
#X obj 630 326 b;
#X obj 526 379 moses 1000;
#X obj 583 406 t b;
#X obj 487 327 input.double.click 400;
#X obj 471 102 inlet;
#X obj 323 198 demux 1 2;
#X obj 180 263 change;
#X obj 176 304 sel 0;
#X obj 177 351 t b;
#X obj 118 369 b;
#X obj 216 355 timer;
#X obj 320 326 b;
#X obj 216 379 moses 1000;
#X obj 273 406 t b;
#X obj 177 327 input.double.click 400;
#X obj 117 300 s ion\$1r;
#X obj 116 402 s ion\$1tr;
#X obj 179 403 s ion\$1dbr;
#X obj 276 433 s ion\$1holdr;
#X obj 337 240 bng 15 250 50 0 empty empty empty 17 7 0 10 -262144
-1 -1;
#X floatatom 94 217 5 0 0 0 - - -;
#X floatatom 283 264 5 0 0 0 - - -;
#X floatatom 383 244 5 0 0 0 - - -;
#X connect 0 0 15 0;
#X connect 3 0 4 0;
#X connect 3 0 2 0;
#X connect 4 0 6 0;
#X connect 4 0 9 0;
#X connect 4 0 13 0;
#X connect 4 1 10 0;
#X connect 5 0 1 0;
#X connect 6 0 7 0;
#X connect 9 0 11 0;
#X connect 10 0 9 1;
#X connect 11 1 12 0;
#X connect 12 0 8 0;
#X connect 13 0 5 0;
#X connect 14 0 15 1;
#X connect 15 0 16 0;
#X connect 15 0 29 0;
#X connect 15 0 31 0;
#X connect 15 1 3 0;
#X connect 15 1 32 0;
#X connect 16 0 17 0;
#X connect 16 0 25 0;
#X connect 16 0 30 0;
#X connect 17 0 19 0;
#X connect 17 0 20 0;
#X connect 17 0 24 0;
#X connect 17 1 21 0;
#X connect 18 0 27 0;
#X connect 19 0 26 0;
#X connect 20 0 22 0;
#X connect 21 0 20 1;
#X connect 22 1 23 0;
#X connect 23 0 28 0;
#X connect 24 0 18 0;
