#N canvas 1 58 1274 628 12;
#X obj 254 323 line~;
#X obj 254 256 pack f f f;
#X msg 254 292 \$1 \, \$2 \$3;
#X floatatom 277 219 5 0 0 0 - - -;
#X floatatom 328 219 5 0 0 0 - - -;
#X floatatom 379 219 5 0 0 0 - - -;
#X obj 379 92 / 2;
#X obj 254 131 metro 250;
#X obj 254 102 tgl 15 0 empty empty empty 0 -6 0 8 -44926 -1 -1 1 1
;
#X obj 20 110 inlet~ audio;
#X obj 379 48 nbx 5 14 -1e+37 1e+37 0 0 empty empty empty 0 -6 0 10
-241291 -1 -1 1000 256;
#X obj 969 7 inlet;
#X floatatom 364 472 5 0 0 0 - - -;
#X obj 367 451 hsl 128 15 0 1 0 0 empty empty empty -2 -8 0 10 -262144
-1 -1 0 1;
#X msg 364 494 \$1 5;
#X obj 364 521 line~;
#X obj 67 470 outlet~;
#X obj 55 438 tof/crossfade~ 2;
#X obj 704 323 line~;
#X obj 704 256 pack f f f;
#X msg 704 292 \$1 \, \$2 \$3;
#X floatatom 727 219 5 0 0 0 - - -;
#X floatatom 778 219 5 0 0 0 - - -;
#X floatatom 829 219 5 0 0 0 - - -;
#X obj 829 92 / 2;
#X obj 704 131 metro 250;
#X obj 704 102 tgl 15 0 empty empty empty 0 -6 0 8 -44926 -1 -1 0 1
;
#X obj 829 48 nbx 5 14 -1e+37 1e+37 0 0 empty empty empty 0 -6 0 10
-241291 -1 -1 0 256;
#X obj 495 156 delwrite~ \$0-delp2 5000;
#X obj 45 156 delwrite~ \$0-delp 5000;
#X obj 253 369 vd~ \$0-delp;
#X obj 703 369 vd~ \$0-delp2;
#X obj 509 100 inlet~ audior;
#X obj 137 470 outlet~;
#X obj 691 72 loadbang;
#X obj 1070 392 inlet;
#X connect 0 0 30 0;
#X connect 1 0 2 0;
#X connect 2 0 0 0;
#X connect 3 0 1 0;
#X connect 4 0 1 1;
#X connect 5 0 1 2;
#X connect 6 0 5 0;
#X connect 6 0 7 1;
#X connect 7 0 1 0;
#X connect 8 0 7 0;
#X connect 9 0 17 0;
#X connect 9 0 29 0;
#X connect 10 0 6 0;
#X connect 10 0 4 0;
#X connect 11 0 10 0;
#X connect 11 0 27 0;
#X connect 12 0 14 0;
#X connect 13 0 12 0;
#X connect 14 0 15 0;
#X connect 15 0 17 4;
#X connect 17 0 16 0;
#X connect 17 1 33 0;
#X connect 18 0 31 0;
#X connect 19 0 20 0;
#X connect 20 0 18 0;
#X connect 21 0 19 0;
#X connect 22 0 19 1;
#X connect 23 0 19 2;
#X connect 24 0 23 0;
#X connect 24 0 25 1;
#X connect 25 0 19 0;
#X connect 26 0 25 0;
#X connect 27 0 24 0;
#X connect 27 0 22 0;
#X connect 30 0 17 2;
#X connect 31 0 17 3;
#X connect 32 0 28 0;
#X connect 32 0 17 1;
#X connect 34 0 26 0;
#X connect 34 0 8 0;
#X connect 35 0 14 0;
