#N canvas 200 307 982 1038 10;
#X obj 37 649 outlet~;
#X obj 130 651 outlet~;
#N canvas 779 89 399 218 delayfeedback 0;
#N canvas 139 501 181 218 crossover 0;
#X obj 20 15 inlet;
#X obj 20 168 outlet;
#X text 97 185 wet;
#X text 27 186 dry;
#X obj 91 168 outlet;
#X floatatom 29 62 5 0 0 0 - - -;
#X obj 20 114 cos;
#X obj 20 85 * 1.5708;
#X obj 91 115 sin;
#X obj 20 141 pow 0.8;
#X obj 91 142 pow 1.5;
#X obj 20 40 * 0.95;
#X connect 0 0 11 0;
#X connect 6 0 9 0;
#X connect 7 0 6 0;
#X connect 7 0 8 0;
#X connect 8 0 10 0;
#X connect 9 0 1 0;
#X connect 10 0 4 0;
#X connect 11 0 5 0;
#X connect 11 0 7 0;
#X restore 110 62 pd crossover;
#X obj 23 29 inlet~;
#X obj 110 30 inlet;
#X obj 221 29 inlet~;
#X obj 258 118 r~ \$0-feedback-left;
#X obj 60 116 r~ \$0-feedback-right;
#X obj 23 179 outlet~;
#X obj 221 182 outlet~;
#X obj 23 143 *~ 1;
#X obj 221 149 *~ 1;
#X obj 60 143 *~ 0;
#X obj 258 149 *~ 0;
#X floatatom 179 90 5 0 0 0 - - -;
#X floatatom 110 90 5 0 0 0 - - -;
#X text 98 6 feedback amount;
#X connect 0 0 9 1;
#X connect 0 0 8 1;
#X connect 0 0 13 0;
#X connect 0 1 10 1;
#X connect 0 1 12 0;
#X connect 0 1 11 1;
#X connect 1 0 8 0;
#X connect 2 0 0 0;
#X connect 3 0 9 0;
#X connect 4 0 11 0;
#X connect 5 0 10 0;
#X connect 8 0 6 0;
#X connect 9 0 7 0;
#X connect 10 0 6 0;
#X connect 11 0 7 0;
#X restore 64 172 pd delayfeedback;
#X obj 64 24 inlet~;
#X obj 151 39 inlet~;
#N canvas 614 212 183 149 delaydata 0;
#X obj 22 94 outlet;
#X obj 89 94 outlet;
#X obj 22 68 unpack;
#X obj 22 19 r delay\$1;
#X connect 2 0 0 0;
#X connect 2 1 1 0;
#X connect 3 0 2 0;
#X restore 41 144 pd delaydata;
#X obj 236 220 vradio 10 1 1 4 empty empty empty 0 -8 0 10 -262144
-260097 -1 2;
#X text 252 225 quaver;
#X text 252 215 semiquaver;
#X text 252 237 1 beat;
#X text 252 247 2 beats;
#N canvas 827 317 178 195 krunchdata 0;
#X obj 22 105 outlet;
#X obj 55 77 outlet;
#X obj 22 49 unpack;
#X obj 22 19 r krunch\$1;
#X connect 2 0 0 0;
#X connect 2 1 1 0;
#X connect 3 0 2 0;
#X restore 119 219 pd krunchdata;
#N canvas 494 385 571 270 stereodelay 0;
#X obj 21 16 inlet~;
#X obj 21 237 outlet~;
#X text 183 0 delay time;
#N canvas 28 219 528 440 delaytime 0;
#X obj 20 13 inlet;
#X obj 188 340 outlet~;
#X obj 188 312 line~;
#X obj 47 144 + 5;
#X obj 20 63 pow 2;
#X msg 188 285 \$1 100;
#X floatatom 47 168 5 0 0 0 - - -;
#X floatatom 198 85 5 0 0 0 - - -;
#N canvas 808 450 254 245 bpm-to-milliseconds 0;
#X obj 112 33 inlet;
#X obj 51 207 outlet;
#X msg 147 91 0.5;
#X msg 177 91 1;
#X obj 112 123 f;
#X obj 51 128 /;
#X obj 51 84 t b f;
#X floatatom 59 59 5 0 0 0 - - -;
#X obj 51 180 * 1;
#X obj 112 149 t b f;
#X obj 112 62 sel 0 1 2 3;
#X msg 112 91 0.25;
#X msg 51 106 45000;
#X msg 208 91 2;
#X floatatom 173 150 5 0 0 0 - - -;
#X obj 51 9 r beatsperminute;
#X connect 0 0 10 0;
#X connect 2 0 4 0;
#X connect 3 0 4 0;
#X connect 4 0 9 0;
#X connect 4 0 14 0;
#X connect 5 0 8 0;
#X connect 6 0 12 0;
#X connect 6 1 5 1;
#X connect 8 0 1 0;
#X connect 9 0 8 0;
#X connect 9 1 8 1;
#X connect 10 0 11 0;
#X connect 10 1 2 0;
#X connect 10 2 3 0;
#X connect 10 3 13 0;
#X connect 11 0 4 0;
#X connect 12 0 5 0;
#X connect 13 0 4 0;
#X connect 15 0 7 0;
#X connect 15 0 6 0;
#X restore 188 62 pd bpm-to-milliseconds;
#X obj 194 131 sel 0;
#X obj 194 106 int;
#X obj 188 186 f;
#X obj 188 213 spigot;
#X obj 194 159 t b b;
#X msg 221 186 1;
#X msg 255 186 0;
#X text 58 13 fader 'delaytime';
#X text 83 138 milliseconds;
#X text 235 85 milliseconds;
#X obj 20 89 t f f;
#X floatatom 145 285 5 0 0 0 - - -;
#X text 67 285 milliseconds;
#X obj 188 243 f;
#X text 16 406 with fader setting zero \, delaytime is synched to BPM
;
#X obj 188 10 inlet;
#X obj 249 341 outlet~;
#X obj 312 341 outlet;
#X obj 249 260 + 0.5;
#X obj 249 315 line~;
#X msg 249 288 \$1 100;
#X obj 384 250 int;
#X obj 384 340 outlet;
#X obj 20 39 * 29.6875;
#X text 227 11 sync unit;
#X obj 384 227 * 50;
#X text 310 363 freqshift;
#X text 382 363 filter;
#X connect 0 0 32 0;
#X connect 0 0 34 0;
#X connect 2 0 1 0;
#X connect 3 0 6 0;
#X connect 3 0 22 0;
#X connect 4 0 19 0;
#X connect 5 0 2 0;
#X connect 8 0 7 0;
#X connect 8 0 11 0;
#X connect 9 0 13 0;
#X connect 9 1 15 0;
#X connect 10 0 9 0;
#X connect 11 0 12 0;
#X connect 12 0 22 0;
#X connect 13 0 11 0;
#X connect 13 1 14 0;
#X connect 14 0 12 1;
#X connect 15 0 12 1;
#X connect 19 0 10 0;
#X connect 19 1 3 0;
#X connect 22 0 5 0;
#X connect 22 0 20 0;
#X connect 22 0 26 0;
#X connect 22 0 27 0;
#X connect 24 0 8 0;
#X connect 27 0 29 0;
#X connect 28 0 25 0;
#X connect 29 0 28 0;
#X connect 30 0 31 0;
#X connect 32 0 4 0;
#X connect 34 0 30 0;
#X restore 226 60 pd delaytime;
#X obj 226 18 inlet;
#X text 286 0 sync unit;
#X obj 348 238 outlet~;
#X obj 295 19 inlet;
#X obj 348 19 inlet~;
#N canvas 635 451 217 200 freqshift 0;
#X obj 18 14 inlet~;
#X obj 18 163 outlet~;
#X obj 18 100 *~;
#X obj 81 99 *~;
#X text 44 136 a*c-b*d;
#X text 98 136 sum frequencies;
#X obj 18 136 -~;
#X obj 70 14 inlet~;
#X obj 132 14 inlet~;
#X obj 18 57 complexify~;
#X connect 0 0 9 0;
#X connect 2 0 6 0;
#X connect 3 0 6 1;
#X connect 6 0 1 0;
#X connect 7 0 2 1;
#X connect 8 0 3 1;
#X connect 9 0 2 0;
#X connect 9 1 3 0;
#X restore 31 179 pd freqshift;
#X obj 32 46 delwrite~ \$0-delay-left 1000;
#X obj 31 89 vd~ \$0-delay-left 100;
#X obj 31 209 s~ \$0-feedback-left;
#X obj 361 50 delwrite~ \$0-delay-right 1000;
#X obj 361 95 vd~ \$0-delay-right 100;
#X obj 361 212 s~ \$0-feedback-right;
#N canvas 305 444 249 284 filters 0;
#X obj 36 40 inlet~;
#X obj 36 235 outlet~;
#X obj 81 40 inlet;
#X obj 36 206 lop~ 500;
#X obj 36 124 hip~ 5;
#X obj 81 155 sel 0;
#X msg 81 182 500;
#X obj 69 71 sel 0;
#X msg 69 98 5;
#X obj 96 98 * 20;
#X msg 108 182 6000;
#X connect 0 0 4 0;
#X connect 2 0 5 0;
#X connect 2 0 7 0;
#X connect 3 0 1 0;
#X connect 4 0 3 0;
#X connect 5 0 6 0;
#X connect 5 1 10 0;
#X connect 6 0 3 1;
#X connect 7 0 8 0;
#X connect 7 1 9 0;
#X connect 8 0 4 1;
#X connect 9 0 4 1;
#X connect 10 0 3 1;
#X restore 31 133 pd filters;
#N canvas 901 448 249 284 filters 0;
#X obj 36 40 inlet~;
#X obj 36 235 outlet~;
#X obj 81 40 inlet;
#X obj 36 206 lop~ 500;
#X obj 36 124 hip~ 5;
#X obj 81 155 sel 0;
#X msg 81 182 500;
#X obj 69 71 sel 0;
#X msg 69 98 5;
#X obj 96 98 * 20;
#X msg 108 182 6000;
#X connect 0 0 4 0;
#X connect 2 0 5 0;
#X connect 2 0 7 0;
#X connect 3 0 1 0;
#X connect 4 0 3 0;
#X connect 5 0 6 0;
#X connect 5 1 10 0;
#X connect 6 0 3 1;
#X connect 7 0 8 0;
#X connect 7 1 9 0;
#X connect 8 0 4 1;
#X connect 9 0 4 1;
#X connect 10 0 3 1;
#X restore 361 136 pd filters;
#N canvas 749 93 219 276 complexsinusoid 0;
#X obj 30 194 cos~;
#X obj 30 158 phasor~;
#X text 78 157 ramp;
#X text 122 100 frequency;
#X obj 30 225 outlet~;
#X obj 117 226 outlet~;
#X obj 69 109 sel 0;
#X obj 30 33 inlet;
#X msg 69 133 0;
#N canvas 0 22 213 193 sin~ 0;
#X obj 28 28 inlet~;
#X obj 28 62 -~ 0.25;
#X obj 28 99 cos~;
#X obj 28 136 outlet~;
#X connect 0 0 1 0;
#X connect 1 0 2 0;
#X connect 2 0 3 0;
#X restore 117 195 pd sin~;
#X obj 30 62 * -0.013333;
#X floatatom 123 79 5 0 0 0 - - -;
#X text 72 32 delaytime;
#X connect 0 0 4 0;
#X connect 1 0 0 0;
#X connect 1 0 9 0;
#X connect 6 0 8 0;
#X connect 7 0 10 0;
#X connect 8 0 1 1;
#X connect 9 0 5 0;
#X connect 10 0 1 0;
#X connect 10 0 6 0;
#X connect 10 0 11 0;
#X restore 209 124 pd complexsinusoid;
#N canvas 635 451 217 200 freqshift 0;
#X obj 18 14 inlet~;
#X obj 18 163 outlet~;
#X obj 18 100 *~;
#X obj 81 99 *~;
#X text 44 136 a*c-b*d;
#X text 98 136 sum frequencies;
#X obj 18 136 -~;
#X obj 70 14 inlet~;
#X obj 132 14 inlet~;
#X obj 18 57 complexify~;
#X connect 0 0 9 0;
#X connect 2 0 6 0;
#X connect 3 0 6 1;
#X connect 6 0 1 0;
#X connect 7 0 2 1;
#X connect 8 0 3 1;
#X connect 9 0 2 0;
#X connect 9 1 3 0;
#X restore 361 182 pd freqshift;
#X obj 217 206 snapshot~;
#X floatatom 216 246 10 0 0 0 - - -;
#X obj 219 164 bng 15 250 50 0 empty empty empty 17 7 0 10 -262144
-1 -1;
#X connect 0 0 1 0;
#X connect 0 0 10 0;
#X connect 0 0 20 0;
#X connect 3 0 11 0;
#X connect 3 1 14 0;
#X connect 3 2 18 0;
#X connect 3 3 16 1;
#X connect 3 3 17 1;
#X connect 4 0 3 0;
#X connect 7 0 3 1;
#X connect 8 0 6 0;
#X connect 8 0 13 0;
#X connect 9 0 12 0;
#X connect 11 0 16 0;
#X connect 14 0 17 0;
#X connect 16 0 9 0;
#X connect 17 0 19 0;
#X connect 18 0 9 1;
#X connect 18 0 19 1;
#X connect 18 1 9 2;
#X connect 18 1 19 2;
#X connect 19 0 15 0;
#X connect 20 0 21 0;
#X connect 22 0 20 0;
#X restore 64 328 pd stereodelay;
#N canvas 247 22 243 421 stereokrunch 0;
#X obj 32 32 inlet~;
#X obj 32 373 outlet~;
#X obj 83 373 outlet~;
#X obj 79 33 inlet~;
#X obj 66 100 t f f;
#X obj 66 74 * 3.5;
#X obj 66 128 *;
#X obj 130 59 t b f;
#X obj 130 107 -;
#X msg 130 83 1;
#X obj 130 132 + 1;
#X floatatom 177 177 5 0 0 0 - - -;
#X obj 130 160 * 0.5;
#X obj 32 274 *~ 1;
#X obj 79 274 *~ 1;
#X obj 32 342 *~ 1;
#X obj 83 343 *~ 1;
#X obj 130 195 t b f;
#X obj 130 244 /;
#X msg 130 219 1;
#X floatatom 130 276 5 0 0 0 - - -;
#X obj 66 153 + 0.15;
#X obj 32 311 krunch~ 2;
#X obj 130 33 inlet;
#X floatatom 87 180 5 0 0 0 - - -;
#X connect 0 0 13 0;
#X connect 3 0 14 0;
#X connect 4 0 6 0;
#X connect 4 1 6 1;
#X connect 5 0 4 0;
#X connect 6 0 21 0;
#X connect 7 0 9 0;
#X connect 7 1 8 1;
#X connect 8 0 10 0;
#X connect 9 0 8 0;
#X connect 10 0 12 0;
#X connect 12 0 11 0;
#X connect 12 0 15 1;
#X connect 12 0 16 1;
#X connect 12 0 17 0;
#X connect 13 0 22 0;
#X connect 14 0 22 1;
#X connect 15 0 1 0;
#X connect 16 0 2 0;
#X connect 17 0 19 0;
#X connect 17 1 18 1;
#X connect 18 0 20 0;
#X connect 18 0 13 1;
#X connect 18 0 14 1;
#X connect 19 0 18 0;
#X connect 21 0 22 2;
#X connect 21 0 24 0;
#X connect 22 0 15 0;
#X connect 22 1 16 0;
#X connect 23 0 5 0;
#X connect 23 0 7 0;
#X restore 64 247 pd stereokrunch;
#N canvas 928 147 255 286 amp-compensation 0;
#X obj 29 20 inlet~;
#X obj 102 21 inlet;
#X obj 168 22 inlet~;
#X obj 29 220 outlet~;
#X obj 168 223 outlet~;
#X obj 29 178 *~ 1;
#X obj 168 178 *~ 1;
#X obj 102 48 t b f;
#X obj 102 96 -;
#X msg 102 72 1;
#X obj 102 121 + 1;
#X obj 102 149 * 0.5;
#X connect 0 0 5 0;
#X connect 1 0 7 0;
#X connect 2 0 6 0;
#X connect 5 0 3 0;
#X connect 6 0 4 0;
#X connect 7 0 9 0;
#X connect 7 1 8 1;
#X connect 8 0 10 0;
#X connect 9 0 8 0;
#X connect 10 0 11 0;
#X connect 11 0 5 1;
#X connect 11 0 6 1;
#X restore 64 357 pd amp-compensation;
#N canvas 442 478 320 196 stereobitflip 0;
#X obj 28 24 inlet~;
#X obj 28 163 outlet~;
#X obj 80 24 inlet;
#X obj 219 163 outlet~;
#X obj 219 23 inlet~;
#X text 118 21 krunch y-value;
#X floatatom 80 51 5 0 0 0 - - -;
#X obj 28 127 bitflip~;
#X obj 219 126 bitflip~;
#X obj 76 93 hsl 100 15 0 1 0 1 empty empty noisegate 20 8 0 10 -262144
-260097 -1 0 0;
#X connect 0 0 7 0;
#X connect 2 0 6 0;
#X connect 2 0 7 1;
#X connect 2 0 8 1;
#X connect 4 0 8 0;
#X connect 7 0 1 0;
#X connect 8 0 3 0;
#X connect 9 0 7 2;
#X connect 9 0 8 2;
#X restore 64 388 pd stereobitflip;
#N canvas 1044 488 573 292 state-var-filters 0;
#X obj 37 24 inlet~;
#X obj 347 108 route 0 1 2 3;
#N canvas 468 22 267 130 allpass 0;
#X obj 30 17 inlet;
#X obj 30 79 s \$0-lo;
#X obj 100 80 s \$0-band;
#X obj 169 80 s \$0-hi;
#X msg 169 54 1 300;
#X msg 30 54 1 300;
#X msg 100 54 1.414 300;
#X connect 0 0 5 0;
#X connect 0 0 6 0;
#X connect 0 0 4 0;
#X connect 4 0 3 0;
#X connect 5 0 1 0;
#X connect 6 0 2 0;
#X restore 347 204 pd allpass;
#N canvas 410 235 218 124 lopass 0;
#X obj 29 17 inlet;
#X obj 29 82 s \$0-lo;
#X obj 94 82 s \$0-band;
#X obj 161 82 s \$0-hi;
#X msg 161 55 0 300;
#X msg 94 54 0 300;
#X msg 29 54 1 300;
#X connect 0 0 6 0;
#X connect 0 0 5 0;
#X connect 0 0 4 0;
#X connect 4 0 3 0;
#X connect 5 0 2 0;
#X connect 6 0 1 0;
#X restore 365 179 pd lopass;
#N canvas 225 138 216 130 hipass 0;
#X obj 30 17 inlet;
#X obj 30 81 s \$0-lo;
#X obj 83 81 s \$0-band;
#X obj 149 81 s \$0-hi;
#X msg 30 53 0 300;
#X msg 83 54 0.5 300;
#X msg 149 55 0.5 300;
#X connect 0 0 4 0;
#X connect 0 0 5 0;
#X connect 0 0 6 0;
#X connect 4 0 1 0;
#X connect 5 0 2 0;
#X connect 6 0 3 0;
#X restore 403 132 pd hipass;
#N canvas 360 442 220 123 bandpass 0;
#X obj 30 17 inlet;
#X obj 30 81 s \$0-lo;
#X obj 83 81 s \$0-band;
#X obj 149 81 s \$0-hi;
#X msg 30 54 0 300;
#X msg 149 55 0 300;
#X msg 83 54 1.5 300;
#X connect 0 0 4 0;
#X connect 0 0 6 0;
#X connect 0 0 5 0;
#X connect 4 0 1 0;
#X connect 5 0 3 0;
#X connect 6 0 2 0;
#X restore 384 154 pd bandpass;
#X obj 347 56 vradio 10 1 0 4 empty empty empty 0 -8 0 10 -262144 -260097
-1 0;
#X text 360 64 lopass;
#X text 361 74 bandpass;
#X text 361 85 hipass;
#X text 167 224 freq;
#X text 344 8 filter type;
#X floatatom 115 223 8 0 0 0 - - -;
#X floatatom 163 81 5 0 0 0 - - -;
#X obj 88 195 f;
#X obj 474 26 inlet~;
#X text 361 53 allpass;
#N canvas 899 458 187 242 freq 0;
#X obj 58 41 inlet;
#X obj 57 174 outlet;
#X obj 58 98 t f f;
#X obj 58 120 *;
#X obj 57 149 + 20;
#X obj 108 68 * 0.07;
#X obj 58 69 * 33.25;
#X connect 0 0 6 0;
#X connect 2 0 3 0;
#X connect 2 1 3 1;
#X connect 3 0 4 0;
#X connect 4 0 1 0;
#X connect 6 0 2 0;
#X restore 88 96 pd freq;
#N canvas 697 442 450 304 random-steps 0;
#X obj 128 31 inlet;
#X obj 31 277 outlet;
#X obj 31 249 mtof;
#N canvas 365 153 194 329 mesh 0;
#X obj 17 27 inlet;
#X obj 61 27 inlet;
#X obj 32 224 f;
#X obj 17 248 & 3;
#X obj 17 273 sel 3;
#X floatatom 46 248 5 0 0 0 - - -;
#X text 78 156 eighth notes;
#X msg 83 207 -1;
#X text 113 206 off;
#X obj 17 303 outlet;
#X text 61 127 quarter notes;
#X msg 49 157 1;
#X text 15 9 ticks;
#X text 62 9 units;
#X msg 66 180 0;
#X text 94 180 sixteenth notes;
#X obj 32 74 sel 2 1 0;
#X msg 32 128 1;
#X connect 0 0 3 0;
#X connect 1 0 16 0;
#X connect 2 0 3 1;
#X connect 2 0 4 1;
#X connect 2 0 5 0;
#X connect 3 0 4 0;
#X connect 4 0 9 0;
#X connect 7 0 2 0;
#X connect 11 0 2 0;
#X connect 14 0 2 0;
#X connect 16 0 17 0;
#X connect 16 1 11 0;
#X connect 16 2 14 0;
#X connect 16 3 7 0;
#X connect 17 0 2 0;
#X restore 31 107 pd mesh;
#X obj 31 31 r globalticks;
#X obj 31 224 + 44;
#X obj 31 198 random 48;
#X obj 262 33 inlet;
#X text 124 12 stepper;
#X text 258 15 freq;
#X obj 262 109 ftom;
#X floatatom 135 51 5 0 0 0 - - -;
#X obj 82 126 t b f;
#X msg 82 150 92;
#X obj 82 176 -;
#X obj 262 82 + 100;
#X text 120 155 The freq fader will set a lower boundary on the filter
modulation \, between 100 and 550 Hz.;
#X msg 128 90 2;
#X msg 161 90 3;
#X obj 42 134 bng 15 250 50 0 empty empty empty 17 7 0 10 -262144 -1
-1;
#X obj 128 68 sel 1;
#X obj 349 59 * 0.8;
#X obj 262 57 * 380;
#X connect 0 0 11 0;
#X connect 0 0 20 0;
#X connect 2 0 1 0;
#X connect 3 0 6 0;
#X connect 3 0 19 0;
#X connect 4 0 3 0;
#X connect 5 0 2 0;
#X connect 6 0 5 0;
#X connect 7 0 22 0;
#X connect 10 0 12 0;
#X connect 10 0 5 1;
#X connect 12 0 13 0;
#X connect 12 1 14 1;
#X connect 13 0 14 0;
#X connect 14 0 6 1;
#X connect 15 0 10 0;
#X connect 17 0 3 1;
#X connect 18 0 3 1;
#X connect 20 0 17 0;
#X connect 20 1 18 0;
#X connect 22 0 15 0;
#X restore 193 149 pd random-steps;
#X obj 225 99 vradio 10 1 1 3 empty empty empty 0 -8 0 10 -262144 -260097
-1 0;
#N canvas 268 22 261 348 svf-left 0;
#X obj 23 30 inlet~;
#X obj 85 309 outlet~;
#X obj 38 226 r \$0-lo;
#X obj 161 228 r \$0-band;
#X obj 100 228 r \$0-hi;
#X obj 23 276 *~;
#X obj 38 250 line~;
#X obj 85 277 *~;
#X obj 146 279 *~;
#X obj 100 252 line~;
#X obj 161 254 line~;
#X obj 75 110 line~;
#X msg 75 88 \$1 5;
#X obj 75 30 inlet;
#X obj 162 30 inlet;
#X text 113 30 freq;
#X text 204 29 Q;
#X obj 75 62 clip 1 5000;
#X obj 23 136 cyclone/svf~ 400 0;
#X obj 93 164 cyclone/delay~ 1 1;
#X obj 23 188 cyclone/delay~ 1 1;
#X connect 0 0 18 0;
#X connect 2 0 6 0;
#X connect 3 0 10 0;
#X connect 4 0 9 0;
#X connect 5 0 1 0;
#X connect 6 0 5 1;
#X connect 7 0 1 0;
#X connect 8 0 1 0;
#X connect 9 0 7 1;
#X connect 10 0 8 1;
#X connect 11 0 18 1;
#X connect 12 0 11 0;
#X connect 13 0 17 0;
#X connect 14 0 18 2;
#X connect 17 0 12 0;
#X connect 18 0 20 0;
#X connect 18 1 7 0;
#X connect 18 2 19 0;
#X connect 19 0 8 0;
#X connect 20 0 5 0;
#X restore 37 223 pd svf-left;
#N canvas 545 166 264 335 svf-right 0;
#X obj 23 30 inlet~;
#X obj 85 300 outlet~;
#X obj 38 217 r \$0-lo;
#X obj 161 219 r \$0-band;
#X obj 100 219 r \$0-hi;
#X obj 23 267 *~;
#X obj 38 241 line~;
#X obj 85 268 *~;
#X obj 146 270 *~;
#X obj 100 243 line~;
#X obj 161 245 line~;
#X obj 75 110 line~;
#X msg 75 85 \$1 5;
#X obj 75 30 inlet;
#X obj 162 30 inlet;
#X text 113 30 freq;
#X text 204 29 Q;
#X obj 75 62 clip 1 5000;
#X obj 23 190 cyclone/delay~ 1 1;
#X obj 93 165 cyclone/delay~ 1 1;
#X obj 23 136 cyclone/svf~ 400 0;
#X connect 0 0 20 0;
#X connect 2 0 6 0;
#X connect 3 0 10 0;
#X connect 4 0 9 0;
#X connect 5 0 1 0;
#X connect 6 0 5 1;
#X connect 7 0 1 0;
#X connect 8 0 1 0;
#X connect 9 0 7 1;
#X connect 10 0 8 1;
#X connect 11 0 20 1;
#X connect 12 0 11 0;
#X connect 13 0 17 0;
#X connect 14 0 20 2;
#X connect 17 0 12 0;
#X connect 18 0 5 0;
#X connect 19 0 8 0;
#X connect 20 0 18 0;
#X connect 20 1 7 0;
#X connect 20 2 19 0;
#X restore 474 228 pd svf-right;
#X floatatom 96 123 8 0 0 0 - - -;
#N canvas 685 119 145 174 reset-freq 0;
#X obj 33 31 inlet;
#X obj 33 119 outlet;
#X obj 33 86 delay 10;
#X obj 33 60 sel 0;
#X connect 0 0 3 0;
#X connect 2 0 1 0;
#X connect 3 0 2 0;
#X restore 238 60 pd reset-freq;
#X obj 37 252 outlet~;
#X obj 474 255 outlet~;
#N canvas 455 442 222 331 sinemod 0;
#X obj 21 20 inlet;
#X obj 21 298 outlet;
#X obj 21 194 * 6.28319;
#X obj 21 143 +;
#X obj 21 219 sin;
#X msg 21 119 0.01;
#X obj 21 272 * 1000;
#X obj 21 246 + 1.1;
#X obj 21 95 metro 100;
#X msg 21 68 1;
#X msg 53 68 0;
#X obj 141 18 inlet;
#X obj 141 111 + 1.1;
#X obj 21 44 sel 2;
#X obj 141 44 * 0.475;
#X obj 21 167 wrap;
#X connect 0 0 13 0;
#X connect 2 0 4 0;
#X connect 3 0 15 0;
#X connect 4 0 7 0;
#X connect 5 0 3 0;
#X connect 6 0 1 0;
#X connect 7 0 6 0;
#X connect 8 0 5 0;
#X connect 9 0 8 0;
#X connect 10 0 8 0;
#X connect 11 0 14 0;
#X connect 12 0 7 1;
#X connect 13 0 9 0;
#X connect 13 1 10 0;
#X connect 14 0 12 0;
#X connect 15 0 2 0;
#X connect 15 0 3 1;
#X restore 225 178 pd sinemod;
#X text 239 96 no mod;
#X text 239 106 square;
#X text 239 116 sine;
#N canvas 547 330 169 122 filterdata 0;
#X obj 22 83 outlet;
#X obj 78 83 outlet;
#X obj 22 52 unpack;
#X obj 22 25 r filter\$1;
#X connect 2 0 0 0;
#X connect 2 1 1 0;
#X connect 3 0 2 0;
#X restore 88 25 pd filterdata;
#X text 149 51 Q;
#X text 85 50 freq;
#X obj 225 27 r \$0-filtermod;
#X obj 347 28 r \$0-filtertype;
#X obj 163 52 * 0.855;
#X obj 498 86 loadbang;
#X msg 497 112 0;
#X connect 0 0 20 0;
#X connect 1 0 2 0;
#X connect 1 1 3 0;
#X connect 1 2 5 0;
#X connect 1 3 4 0;
#X connect 6 0 1 0;
#X connect 14 0 12 0;
#X connect 14 0 20 1;
#X connect 14 0 21 1;
#X connect 15 0 21 0;
#X connect 17 0 14 0;
#X connect 17 0 22 0;
#X connect 18 0 14 0;
#X connect 19 0 18 0;
#X connect 19 0 26 0;
#X connect 20 0 24 0;
#X connect 21 0 25 0;
#X connect 23 0 17 0;
#X connect 26 0 14 0;
#X connect 30 0 17 0;
#X connect 30 0 18 1;
#X connect 30 0 26 1;
#X connect 30 1 35 0;
#X connect 33 0 19 0;
#X connect 33 0 23 0;
#X connect 34 0 6 0;
#X connect 35 0 13 0;
#X connect 35 0 20 2;
#X connect 35 0 21 2;
#X connect 36 0 37 0;
#X connect 37 0 6 0;
#X connect 37 0 19 0;
#X restore 64 196 pd state-var-filters;
#N canvas 641 202 585 363 reverb 0;
#X obj 29 11 inlet~;
#X obj 77 11 inlet~;
#X obj 29 321 outlet~;
#X obj 255 322 outlet~;
#X obj 29 110 *~ 1;
#X obj 111 110 *~ 0;
#X obj 211 249 hsl 128 15 0.7 1 0 1 empty empty decay 20 8 0 10 -262144
-1 -1 12700 0;
#N canvas 1516 581 194 205 rvrbdata-l 0;
#X obj 116 160 outlet;
#X obj 55 160 outlet;
#X obj 22 71 unpack;
#X obj 22 19 r reverb\$1;
#X connect 2 0 0 0;
#X connect 2 1 1 0;
#X connect 3 0 2 0;
#X restore 113 39 pd rvrbdata-l;
#X obj 77 110 *~ 1;
#N canvas 738 373 187 301 Xover-slicycle1 0;
#X obj 20 15 inlet;
#X obj 20 208 outlet;
#X obj 92 103 sin;
#X text 97 225 wet;
#X text 27 226 dry;
#X obj 92 208 outlet;
#X obj 20 103 cos;
#X obj 20 129 pow 1.2;
#X obj 92 130 pow 2;
#X obj 20 73 * 1.0697;
#X obj 92 167 * 2;
#X connect 0 0 9 0;
#X connect 2 0 8 0;
#X connect 6 0 7 0;
#X connect 7 0 1 0;
#X connect 8 0 10 0;
#X connect 9 0 2 0;
#X connect 9 0 6 0;
#X connect 10 0 5 0;
#X restore 61 64 pd Xover-slicycle1;
#X text 439 314 ugly \, you say?;
#N canvas 820 167 322 264 reverb----------------- 0;
#X obj 22 9 inlet~;
#X obj 22 178 outlet~;
#X obj 124 177 outlet~;
#X obj 109 9 inlet;
#X obj 22 89 diffusorL~;
#X obj 22 126 combsL~;
#X obj 124 125 combsR~;
#X obj 124 89 diffusorR~;
#X connect 0 0 4 0;
#X connect 0 0 7 0;
#X connect 3 0 5 1;
#X connect 3 0 6 1;
#X connect 4 0 5 0;
#X connect 5 0 1 0;
#X connect 6 0 2 0;
#X connect 7 0 6 0;
#X restore 39 280 pd reverb-----------------;
#X obj 111 137 damp~;
#X floatatom 149 138 5 0 0 0 - - -;
#X obj 385 52 inlet;
#X connect 0 0 4 0;
#X connect 0 0 5 0;
#X connect 1 0 8 0;
#X connect 1 0 5 0;
#X connect 4 0 2 0;
#X connect 5 0 12 0;
#X connect 6 0 11 1;
#X connect 7 0 9 0;
#X connect 7 1 12 1;
#X connect 7 1 13 0;
#X connect 8 0 3 0;
#X connect 9 0 4 1;
#X connect 9 0 8 1;
#X connect 9 1 5 1;
#X connect 11 0 2 0;
#X connect 11 1 3 0;
#X connect 12 0 11 0;
#X connect 14 0 11 1;
#X restore 61 465 pd reverb;
#X obj 140 428 hsl 128 15 0.7 1 0 1 empty empty decay 20 8 0 10 -262144
-1 -1 5600 0;
#N canvas 384 354 677 315 bufferfx 0;
#X obj 34 18 inlet~;
#X obj 36 256 outlet~;
#N canvas 1057 931 811 508 fx 0;
#X obj 56 18 inlet~;
#X obj 57 243 outlet~;
#N canvas 134 64 824 735 bufferfx1s 0;
#X obj 189 736 outlet~;
#X obj -72 256 inlet~;
#X obj 181 428 phasor~;
#X obj 179 504 *~;
#X obj 276 408 /;
#X obj 272 334 t b f;
#X obj 78 319 metro 500;
#X obj 16 63 loadbang;
#X msg 166 355 1;
#X obj 76 345 t b b;
#X msg 58 366 start;
#X msg 107 365 stop;
#X obj 233 271 + 3;
#X obj 135 263 line;
#X msg 134 232 \$1 20;
#X obj 244 230 line;
#X msg 244 204 \$1 20;
#X msg 245 373 44100;
#X obj 106 115 hsl 128 8 30 1000 0 1 empty empty update -2 5 0 10 -262144
-1 -1 12300 1;
#X obj 106 127 hsl 128 8 3 70 0 1 empty empty length -2 5 0 10 -262144
-1 -1 0 1;
#X obj 148 37 inlet;
#X obj 242 39 inlet;
#X obj -39 536 table \$0bufferfx1r 44100;
#X obj -31 506 table \$0bufferfx1l 44100;
#X obj -19 412 tabwrite~ \$0bufferfx1l;
#X obj 178 533 tabread4~ \$0bufferfx1l;
#X obj -26 207 inlet~;
#X obj 286 744 outlet~;
#X obj 17 455 tabwrite~ \$0bufferfx1r;
#X obj 248 572 tabread4~ \$0bufferfx1r;
#X obj 207 706 +~;
#X obj 245 686 *~;
#X obj 179 679 *~;
#X obj 202 620 * -1;
#X obj 200 644 + 1;
#X obj 309 714 +~;
#X obj 354 687 *~;
#X obj 284 691 *~;
#X obj 349 57 inlet;
#X obj 106 139 hsl 128 8 0 1 0 1 empty empty dry/wet -2 5 0 10 -262144
-1 -1 12700 1;
#X connect 1 0 24 0;
#X connect 1 0 32 1;
#X connect 2 0 3 0;
#X connect 3 0 25 0;
#X connect 3 0 29 0;
#X connect 4 0 3 1;
#X connect 5 0 17 0;
#X connect 5 1 4 1;
#X connect 6 0 8 0;
#X connect 6 0 9 0;
#X connect 7 0 6 0;
#X connect 8 0 2 1;
#X connect 9 0 10 0;
#X connect 9 1 11 0;
#X connect 10 0 24 0;
#X connect 10 0 28 0;
#X connect 11 0 24 0;
#X connect 11 0 28 0;
#X connect 12 0 5 0;
#X connect 12 0 2 0;
#X connect 13 0 6 1;
#X connect 14 0 13 0;
#X connect 15 0 12 0;
#X connect 16 0 15 0;
#X connect 17 0 4 0;
#X connect 18 0 14 0;
#X connect 19 0 16 0;
#X connect 20 0 18 0;
#X connect 21 0 19 0;
#X connect 25 0 31 1;
#X connect 26 0 28 0;
#X connect 26 0 37 0;
#X connect 29 0 36 1;
#X connect 30 0 0 0;
#X connect 31 0 30 1;
#X connect 32 0 30 0;
#X connect 33 0 34 0;
#X connect 34 0 32 0;
#X connect 34 0 37 1;
#X connect 35 0 27 0;
#X connect 36 0 35 1;
#X connect 37 0 35 0;
#X connect 38 0 39 0;
#X connect 39 0 36 0;
#X connect 39 0 33 0;
#X connect 39 0 31 0;
#X coords 0 -1 1 1 140 50 1 100 100;
#X restore 57 117 pd bufferfx1s;
#X obj 397 123 unpack;
#X obj 397 74 r bufferfx\$1;
#X obj 288 84 loadbang;
#X msg 288 107 1;
#X obj 106 18 inlet~;
#X obj 107 243 outlet~;
#X obj 397 143 phiscale 0 1 100 500;
#X obj 429 167 phiscale 0 1 1 10;
#X connect 0 0 2 0;
#X connect 2 0 1 0;
#X connect 2 1 8 0;
#X connect 3 0 9 0;
#X connect 3 1 10 0;
#X connect 4 0 3 0;
#X connect 5 0 6 0;
#X connect 6 0 2 4;
#X connect 7 0 2 1;
#X connect 9 0 2 2;
#X connect 10 0 2 3;
#X restore 129 126 pd fx;
#X obj 35 214 tof/crossfade~ 2;
#X floatatom 266 100 5 0 0 0 - - -;
#X obj 269 79 hsl 128 15 0 1 0 0 empty empty empty -2 -8 0 10 -262144
-1 -1 0 1;
#X text 277 58 Crossfade: 0-1;
#X msg 266 122 \$1 5;
#X obj 266 149 line~;
#X obj 94 18 inlet~;
#X obj 96 256 outlet~;
#X obj 476 112 r cfbufferfx\$1;
#X obj 474 63 loadbang;
#X msg 474 86 0;
#X obj 378 171 r thereminreset;
#X msg 371 216 0;
#X connect 0 0 3 0;
#X connect 0 0 2 0;
#X connect 2 0 3 2;
#X connect 2 1 3 3;
#X connect 3 0 1 0;
#X connect 3 1 10 0;
#X connect 4 0 7 0;
#X connect 5 0 4 0;
#X connect 7 0 8 0;
#X connect 8 0 3 4;
#X connect 9 0 3 1;
#X connect 9 0 2 1;
#X connect 11 0 7 0;
#X connect 12 0 13 0;
#X connect 13 0 7 0;
#X connect 14 0 15 0;
#X connect 15 0 7 0;
#X restore 80 82 pd bufferfx;
#N canvas 1 137 677 315 vibrato 0;
#X obj 34 18 inlet~;
#X obj 36 256 outlet~;
#N canvas 1 137 811 508 fx 0;
#X obj 56 18 inlet~;
#X obj 238 371 outlet~;
#X obj 496 47 switch~;
#X obj 387 47 outlet~;
#N canvas 1 58 1272 692 vibrato 0;
#X obj 466 -5 inlet~ signal;
#X obj 769 448 outlet~;
#X obj 737 242 *~;
#X obj 852 227 line~;
#X obj 738 147 osc~;
#X obj 738 197 abs~;
#X obj 701 94 line~;
#X obj 702 21 expr pow($f1 \, 4);
#X obj 701 52 * 100;
#X obj 851 154 expr pow($f1 \, 4);
#X obj 852 177 * 500;
#X obj 583 180 *~;
#X obj 614 162 line~;
#X msg 853 204 \$1 5;
#X msg 698 73 \$1 5;
#X msg 611 141 \$1 5;
#X obj 609 119 * 0.975;
#X obj 575 -13 inlet feedback;
#X obj 700 -5 inlet speed;
#X obj 794 -4 inlet phase;
#X obj 877 -5 inlet depth;
#X obj 516 291 delwrite~ \$0-wobble-d 500;
#X obj 739 316 vd~ \$0-wobble-d;
#X connect 0 0 21 0;
#X connect 2 0 22 0;
#X connect 3 0 2 1;
#X connect 4 0 5 0;
#X connect 5 0 2 0;
#X connect 6 0 4 0;
#X connect 7 0 8 0;
#X connect 8 0 14 0;
#X connect 9 0 10 0;
#X connect 10 0 13 0;
#X connect 11 0 21 0;
#X connect 12 0 11 1;
#X connect 13 0 3 0;
#X connect 14 0 6 0;
#X connect 15 0 12 0;
#X connect 16 0 15 0;
#X connect 17 0 16 0;
#X connect 18 0 7 0;
#X connect 19 0 4 1;
#X connect 20 0 9 0;
#X connect 22 0 11 0;
#X connect 22 0 1 0;
#X restore 262 315 pd vibrato;
#X obj 387 19 cfl 5000 1 5 2 5;
#X obj 243 82 loadbang;
#X msg 243 104 1;
#X msg 247 127 0;
#X msg 287 127 0.5;
#X obj 355 123 gvson 1 5 0 1 2 5;
#X connect 0 0 4 0;
#X connect 4 0 1 0;
#X connect 5 0 3 0;
#X connect 5 1 2 0;
#X connect 6 0 7 0;
#X connect 6 0 8 0;
#X connect 6 0 9 0;
#X connect 7 0 4 4;
#X connect 8 0 4 3;
#X connect 9 0 4 1;
#X connect 10 0 4 2;
#X restore 80 136 pd fx;
#X obj 35 214 tof/crossfade~ 1;
#X connect 0 0 2 0;
#X connect 0 0 3 0;
#X connect 2 0 3 1;
#X connect 2 1 3 2;
#X connect 3 0 1 0;
#X restore 610 349 pd vibrato;
#N canvas 1 143 677 315 tremolo 0;
#X obj 34 18 inlet~;
#X obj 36 256 outlet~;
#N canvas 1 143 811 508 fx 0;
#X obj 56 18 inlet~;
#X obj 238 371 outlet~;
#X obj 496 47 switch~;
#X obj 387 47 outlet~;
#N canvas 1 59 1265 692 amTremolo 0;
#X obj 90 46 inlet~ signal;
#X obj 173 299 osc~;
#X obj 170 328 expr~ (($v1-1) / 2 * $v2) + 1;
#X obj 359 299 vline~;
#X msg 359 276 \$1 10;
#X obj 140 375 *~;
#N canvas 0 50 462 312 rh_scalelog 0;
#X obj 20 155 exp;
#X obj 20 107 *;
#X obj 20 130 +;
#X obj 98 87 log;
#X obj 194 84 log;
#X obj 123 123 t b f;
#X obj 123 145 -;
#X obj 20 183 outlet;
#X obj 20 19 inlet;
#X obj 98 23 inlet;
#X obj 194 24 inlet;
#X connect 0 0 7 0;
#X connect 1 0 2 0;
#X connect 2 0 0 0;
#X connect 3 0 2 1;
#X connect 3 0 5 0;
#X connect 4 0 6 0;
#X connect 5 0 6 0;
#X connect 5 1 6 1;
#X connect 6 0 1 1;
#X connect 8 0 1 0;
#X connect 9 0 3 0;
#X connect 10 0 4 0;
#X restore 193 207 pd rh_scalelog;
#X msg 240 183 0.1;
#X msg 286 183 10000;
#X obj 220 281 + 0.25;
#X obj 140 501 outlet~;
#X obj 240 155 loadbang;
#X obj 201 52 inlet freq;
#X obj 287 59 inlet phase;
#X obj 392 55 inlet depth;
#X connect 0 0 5 0;
#X connect 1 0 2 0;
#X connect 2 0 5 1;
#X connect 3 0 2 1;
#X connect 4 0 3 0;
#X connect 5 0 10 0;
#X connect 6 0 1 0;
#X connect 7 0 6 1;
#X connect 8 0 6 2;
#X connect 9 0 1 1;
#X connect 11 0 7 0;
#X connect 11 0 8 0;
#X connect 12 0 6 0;
#X connect 13 0 9 0;
#X connect 14 0 4 0;
#X restore 97 263 pd amTremolo;
#X obj 355 123 gvson 1 6 0 1 2 6;
#X obj 387 19 cfl 5000 1 6 2 6;
#X obj 490 204 loadbang;
#X msg 490 226 1;
#X msg 529 233 0;
#X connect 0 0 4 0;
#X connect 4 0 1 0;
#X connect 5 0 4 1;
#X connect 6 0 3 0;
#X connect 6 1 2 0;
#X connect 7 0 8 0;
#X connect 7 0 9 0;
#X connect 8 0 4 3;
#X connect 9 0 4 2;
#X restore 80 136 pd fx;
#X obj 35 214 tof/crossfade~ 1;
#X connect 0 0 2 0;
#X connect 0 0 3 0;
#X connect 2 0 3 1;
#X connect 2 1 3 2;
#X connect 3 0 1 0;
#X restore 610 379 pd tremolo;
#N canvas 1 155 677 315 chorus 0;
#X obj 34 18 inlet~;
#X obj 36 256 outlet~;
#N canvas 1 155 811 508 fx 0;
#X obj 56 18 inlet~;
#X obj 140 396 outlet~;
#X obj 496 47 switch~;
#X obj 387 47 outlet~;
#X obj 490 204 loadbang;
#N canvas 1 58 1272 714 chorus 0;
#X obj 189 269 cos~;
#X obj 189 292 +~ 1;
#X obj 276 268 cos~;
#X obj 276 291 +~ 1;
#X obj 283 589 outlet~;
#X obj 375 267 cos~;
#X obj 375 290 +~ 1;
#X obj 470 265 cos~;
#X obj 470 288 +~ 1;
#X obj 24 42 inlet~;
#X obj 545 294 line~;
#X obj 545 273 pack 0 50;
#X obj 470 349 *~;
#X obj 375 351 *~;
#X obj 276 352 *~;
#X obj 189 353 *~;
#X obj 190 104 line~;
#X obj 190 83 pack 0 50;
#X obj 189 134 phasor~;
#X text 619 248 modulation;
#X obj 470 386 +~ 0;
#X obj 376 386 +~ 0;
#X obj 276 389 +~ 0;
#X obj 190 386 +~ 0;
#N canvas 314 253 450 300 sampledur 0;
#X obj 70 100 samplerate~;
#X obj 70 144 swap 1000;
#X obj 70 172 /;
#X obj 70 51 loadbang;
#X msg 82 77 bang;
#X obj 70 205 outlet;
#X connect 0 0 1 0;
#X connect 1 0 2 0;
#X connect 1 1 2 1;
#X connect 2 0 5 0;
#X connect 3 0 0 0;
#X connect 4 0 0 0;
#X restore 556 353 pd sampledur;
#X obj 24 73 *~ 0.5;
#X obj 535 208 loadbang;
#X obj 535 230 0.2;
#X obj 276 224 wrap~;
#X obj 374 228 wrap~;
#X obj 469 228 wrap~;
#X obj 190 61 / 8;
#X text 187 17 frequency;
#X obj 276 203 *~ 2;
#X obj 374 207 *~ 4;
#X obj 469 207 *~ 8;
#X obj 189 37 inlet frequency;
#X obj 545 249 inlet modulation;
#X obj 234 453 +~;
#X obj 399 454 +~;
#X obj 308 524 +~;
#X obj 24 101 delwrite~ \$0-d 2000;
#X obj 189 414 vd~ \$0-d;
#X obj 276 414 vd~ \$0-d;
#X obj 375 412 vd~ \$0-d;
#X obj 470 410 vd~ \$0-d;
#X connect 0 0 1 0;
#X connect 1 0 15 0;
#X connect 2 0 3 0;
#X connect 3 0 14 0;
#X connect 5 0 6 0;
#X connect 6 0 13 0;
#X connect 7 0 8 0;
#X connect 8 0 12 0;
#X connect 9 0 25 0;
#X connect 10 0 12 1;
#X connect 10 0 13 1;
#X connect 10 0 14 1;
#X connect 10 0 15 1;
#X connect 11 0 10 0;
#X connect 12 0 20 0;
#X connect 13 0 21 0;
#X connect 14 0 22 0;
#X connect 15 0 23 0;
#X connect 16 0 18 0;
#X connect 17 0 16 0;
#X connect 18 0 0 0;
#X connect 18 0 33 0;
#X connect 18 0 34 0;
#X connect 18 0 35 0;
#X connect 20 0 45 0;
#X connect 21 0 44 0;
#X connect 22 0 43 0;
#X connect 23 0 42 0;
#X connect 24 0 20 1;
#X connect 24 0 21 1;
#X connect 24 0 22 1;
#X connect 24 0 23 1;
#X connect 25 0 41 0;
#X connect 26 0 27 0;
#X connect 27 0 10 0;
#X connect 28 0 2 0;
#X connect 29 0 5 0;
#X connect 30 0 7 0;
#X connect 31 0 17 0;
#X connect 33 0 28 0;
#X connect 34 0 29 0;
#X connect 35 0 30 0;
#X connect 36 0 31 0;
#X connect 37 0 11 0;
#X connect 38 0 40 0;
#X connect 39 0 40 1;
#X connect 40 0 4 0;
#X connect 42 0 38 0;
#X connect 43 0 38 1;
#X connect 44 0 39 0;
#X connect 45 0 39 1;
#X restore 111 338 pd chorus;
#X obj 355 123 gvson 1 7 0 1 2 7;
#X obj 387 19 cfl 5000 1 7 2 7;
#X msg 490 226 100;
#X connect 0 0 5 0;
#X connect 4 0 8 0;
#X connect 5 0 1 0;
#X connect 6 0 5 1;
#X connect 7 0 3 0;
#X connect 7 1 2 0;
#X connect 8 0 5 2;
#X restore 80 136 pd fx;
#X obj 35 213 tof/crossfade~ 1;
#X connect 0 0 2 0;
#X connect 0 0 3 0;
#X connect 2 0 3 1;
#X connect 2 1 3 2;
#X connect 3 0 1 0;
#X restore 610 418 pd chorus;
#N canvas 0 58 2160 1382 pitchshift 0;
#X obj 34 18 inlet~;
#X obj 36 256 outlet~;
#N canvas 1 161 811 508 fx 0;
#X obj 56 18 inlet~;
#X obj 140 396 outlet~;
#X obj 496 47 switch~;
#X obj 387 47 outlet~;
#N canvas 593 58 687 714 pitchshift 0;
#X obj 121 313 phasor~;
#X obj 105 354 *~ -1;
#X obj 105 379 +~ 1;
#X obj 198 514 sig~ 1;
#X obj 263 513 cos~;
#X obj 199 538 -~;
#X obj 200 563 *~ 0.5;
#X obj 122 582 *~;
#X obj 164 426 samphold~;
#X obj 122 447 *~;
#X obj 165 398 sig~;
#X obj 280 214 t b f;
#X obj 203 267 / 44.1;
#X obj 356 339 *~ -1;
#X obj 357 364 +~ 1;
#X obj 426 514 sig~ 1;
#X obj 490 514 cos~;
#X obj 427 538 -~;
#X obj 428 563 *~ 0.5;
#X obj 357 583 *~;
#X obj 391 421 samphold~;
#X obj 357 448 *~;
#X obj 392 393 sig~;
#X obj 353 291 +~ 0.5;
#X obj 353 313 wrap~;
#X obj 194 152 t b f;
#X obj 152 244 expr (pow(2 \, ($f2/12)) - 1) * (44100/$f1);
#X obj 178 23 inlet~;
#X obj 121 660 outlet~;
#X obj 323 85 inlet;
#X obj 376 33 loadbang;
#X msg 382 84 8192;
#X obj 177 54 delwrite~ \$0-b2 5000;
#X obj 122 492 vd~ \$0-b2;
#X obj 356 493 vd~ \$0-b2;
#X obj 452 95 f 1;
#X obj 507 43 t b b;
#X floatatom 105 201 10 0 0 0 - - -;
#X connect 0 0 1 0;
#X connect 0 0 4 0;
#X connect 0 0 8 1;
#X connect 0 0 23 0;
#X connect 1 0 2 0;
#X connect 2 0 9 0;
#X connect 3 0 5 0;
#X connect 4 0 5 1;
#X connect 5 0 6 0;
#X connect 6 0 7 1;
#X connect 7 0 28 0;
#X connect 8 0 9 1;
#X connect 9 0 33 0;
#X connect 10 0 8 0;
#X connect 11 0 37 0;
#X connect 11 1 26 1;
#X connect 12 0 10 0;
#X connect 12 0 22 0;
#X connect 13 0 14 0;
#X connect 14 0 21 0;
#X connect 15 0 17 0;
#X connect 16 0 17 1;
#X connect 17 0 18 0;
#X connect 18 0 19 1;
#X connect 19 0 28 0;
#X connect 20 0 21 1;
#X connect 21 0 34 0;
#X connect 22 0 20 0;
#X connect 23 0 24 0;
#X connect 24 0 13 0;
#X connect 24 0 20 1;
#X connect 24 0 16 0;
#X connect 25 0 11 0;
#X connect 25 1 26 0;
#X connect 25 1 37 0;
#X connect 26 0 0 0;
#X connect 27 0 32 0;
#X connect 29 0 11 0;
#X connect 30 0 36 0;
#X connect 31 0 25 0;
#X connect 33 0 7 0;
#X connect 34 0 19 0;
#X connect 35 0 11 0;
#X connect 36 0 35 0;
#X connect 36 1 31 0;
#X connect 37 0 26 0;
#X connect 37 0 12 0;
#X restore 113 264 pd pitchshift;
#X obj 355 123 gvson 1 3 -12 12 2 3;
#X obj 387 19 cfl 5000 1 3 2 3;
#X connect 0 0 4 0;
#X connect 4 0 1 0;
#X connect 5 0 4 1;
#X connect 6 0 3 0;
#X connect 6 1 2 0;
#X restore 80 136 pd fx;
#X obj 35 213 tof/crossfade~ 1;
#X connect 0 0 2 0;
#X connect 0 0 3 0;
#X connect 2 0 3 1;
#X connect 2 1 3 2;
#X connect 3 0 1 0;
#X restore 610 447 pd pitchshift;
#X obj 755 181 switch~;
#X obj 774 97 inlet;
#X connect 2 0 16 0;
#X connect 2 1 16 1;
#X connect 3 0 19 0;
#X connect 4 0 19 1;
#X connect 5 0 12 1;
#X connect 5 1 2 1;
#X connect 6 0 12 2;
#X connect 11 0 14 1;
#X connect 11 0 13 2;
#X connect 11 1 15 1;
#X connect 12 0 14 0;
#X connect 12 1 14 2;
#X connect 13 0 12 0;
#X connect 13 1 12 3;
#X connect 14 0 15 0;
#X connect 14 1 15 2;
#X connect 15 0 17 0;
#X connect 15 1 17 1;
#X connect 16 0 13 0;
#X connect 16 1 13 1;
#X connect 17 0 0 0;
#X connect 17 1 1 0;
#X connect 18 0 17 2;
#X connect 19 0 2 0;
#X connect 19 1 2 2;
#X connect 20 0 21 0;
#X connect 21 0 22 0;
#X connect 22 0 23 0;
#X connect 25 0 24 0;
