#N canvas 484 596 1244 725 12;
#X obj 571 59 inlet;
#X obj 437 422 outlet;
#X obj 604 172 spigot;
#X obj 532 196 f;
#X obj 624 123 t b;
#X msg 624 146 0;
#X obj 507 154 t b b b;
#X msg 666 143 1, f 5;
#X obj 550 275 +;
#X obj 566 214 loadbang;
#X obj 584 95 sel \$1;
#X obj 569 127 r s2-l;
#X obj 408 271 f;
#X obj 423 239 r s2-p;
#X msg 476 262 1;
#X obj 476 237 loadbang;
#X obj 474 300 loadbang;
#X obj 570 249 pack \$2;
#X obj 474 341 pack \$2;
#X obj 458 387 pack f f f;
#X connect 0 0 10 0;
#X connect 2 0 3 1;
#X connect 3 0 8 0;
#X connect 4 0 5 0;
#X connect 5 0 2 1;
#X connect 6 0 12 0;
#X connect 6 1 3 0;
#X connect 6 2 7 0;
#X connect 7 0 2 1;
#X connect 8 0 19 2;
#X connect 9 0 17 0;
#X connect 10 0 6 0;
#X connect 10 1 4 0;
#X connect 11 0 2 0;
#X connect 12 0 19 0;
#X connect 13 0 12 1;
#X connect 14 0 12 1;
#X connect 15 0 14 0;
#X connect 16 0 18 0;
#X connect 17 0 8 1;
#X connect 18 0 19 1;
#X connect 19 0 1 0;
