#N canvas 887 204 1272 967 12;
#X obj 130 801 bng 15 250 50 0 empty empty stopped 0 -6 0 10 -262144
-1 -1;
#X msg 172 579 1;
#X msg 169 639 2;
#X msg 174 605 0;
#X obj 116 577 bng 30 250 50 0 empty empty empty 0 -6 0 10 -258113
-1 -1;
#X msg 237 639 1 0.5;
#X obj 224 742 tgl 15 0 empty empty empty 17 7 0 10 -262144 -1 -1 0
1;
#X msg 201 640 -0.5;
#X msg 331 641 1 0.25 0.75;
#X msg 410 641 1 0.75 0.25;
#X msg 281 641 -1 0.5;
#X obj 47 767 mtl/player~ 0;
#X obj 239 559 loadbang;
#X obj 239 605 t b;
#X obj 239 582 delay 1500;
#X obj 128 393 spigot;
#X obj 256 337 loadbang;
#X msg 256 360 1;
#X msg 256 386 0;
#X obj 338 385 b;
#X obj 63 150 inlet;
#X obj 36 939 outlet~;
#X obj 105 937 outlet~;
#X obj 388 215 inlet;
#X obj 128 358 r \$1;
#X obj 318 359 sel \$2 \$3;
#X connect 1 0 11 0;
#X connect 2 0 11 0;
#X connect 3 0 11 0;
#X connect 4 0 11 0;
#X connect 5 0 11 0;
#X connect 6 0 11 1;
#X connect 7 0 11 0;
#X connect 8 0 11 0;
#X connect 9 0 11 0;
#X connect 10 0 11 0;
#X connect 11 0 21 0;
#X connect 11 1 22 0;
#X connect 11 4 0 0;
#X connect 12 0 14 0;
#X connect 13 0 3 0;
#X connect 14 0 13 0;
#X connect 15 0 11 0;
#X connect 16 0 17 0;
#X connect 17 0 15 1;
#X connect 18 0 15 1;
#X connect 19 0 18 0;
#X connect 20 0 11 0;
#X connect 23 0 25 0;
#X connect 24 0 15 0;
#X connect 25 0 17 0;
#X connect 25 1 19 0;
