#N canvas 530 188 711 503 10;
#X declare -path pdmtl;
#X declare -lib zexy;
#X declare -lib comport;
#X declare -path mtl;
#X declare -lib ggee/shell;
#X declare -path ./;
#X declare -lib iemlib1;
#X declare -lib iemlib2;
#X declare -path /home/psc/Documents/Pd/externals/hcs;
#X declare -path /home/psc/Documents/Pd/externals/creb;
#X declare -path /home/psc/Documents/Pd/externals/oscx;
#X declare -path /home/psc/Documents/Pd/externals/motex;
#X declare -path ./bin/verbkit;
#X declare -path ./bin/crip;
#X declare -path ./bin/dyna;
#X declare -path ./bin/slic;
#X obj 328 261 sjfx 1 0;
#X obj 408 261 sjfx 2 0;
#X obj 351 202 osc~ 70;
#X obj 363 230 osc~ 111;
#X obj 332 333 dac~ 1 2;
#X obj 421 202 osc~ 270;
#X obj 431 222 osc~ 221;
#N canvas 406 535 862 544 init 0;
#X obj 30 26 loadbang;
#X msg 30 54 \; pd dsp 1 \;;
#X obj 166 237 declare -path pdmtl;
#N canvas 584 247 450 300 readyBurst 0;
#X obj 289 150 switch~;
#X obj 180 16 loadbang;
#X msg 288 117 1;
#X obj 165 269 dac~ 1 2;
#X obj 214 144 t b;
#X msg 216 173 0;
#X obj 297 58 t b b;
#X obj 109 200 osc~ 150;
#X obj 167 51 delay 1100;
#X obj 291 21 bng 15 250 50 0 empty empty empty 17 7 0 10 -262144 -1
-1;
#X obj 216 117 delay 80;
#X obj 89 122 line 72 10;
#X msg 100 84 216 80;
#X msg 335 89 72;
#X obj 216 217 noise~;
#X obj 130 233 *~ 0.06;
#X obj 210 243 *~ 0.009;
#X connect 1 0 8 0;
#X connect 2 0 0 0;
#X connect 4 0 5 0;
#X connect 5 0 0 0;
#X connect 6 0 12 0;
#X connect 6 0 10 0;
#X connect 6 1 2 0;
#X connect 6 1 13 0;
#X connect 7 0 15 0;
#X connect 8 0 6 0;
#X connect 9 0 6 0;
#X connect 10 0 4 0;
#X connect 11 0 7 0;
#X connect 12 0 11 0;
#X connect 13 0 11 0;
#X connect 14 0 16 0;
#X connect 15 0 3 0;
#X connect 15 0 3 1;
#X connect 16 0 3 1;
#X connect 16 0 3 0;
#X restore 30 117 pd readyBurst;
#N canvas 1 58 1110 601 cpufreq 0;
#X obj 31 361 shell;
#X msg 31 92 sudo sh -c "echo performance > /sys/devices/system/cpu/cpu0/cpufreq/scaling_governor"
;
#X obj 31 21 loadbang;
#X obj 31 42 delay 100;
#X obj 31 67 b;
#X obj 431 67 b;
#X obj 71 167 b;
#X obj 471 167 b;
#X obj 431 42 delay 200;
#X obj 71 142 delay 300;
#X obj 471 142 delay 400;
#X msg 431 92 sudo sh -c "echo performance > /sys/devices/system/cpu/cpu1/cpufreq/scaling_governor"
;
#X msg 71 192 sudo sh -c "echo performance > /sys/devices/system/cpu/cpu2/cpufreq/scaling_governor"
;
#X msg 471 192 sudo sh -c "echo performance > /sys/devices/system/cpu/cpu3/cpufreq/scaling_governor"
;
#X connect 1 0 0 0;
#X connect 2 0 3 0;
#X connect 2 0 8 0;
#X connect 2 0 9 0;
#X connect 2 0 10 0;
#X connect 3 0 4 0;
#X connect 4 0 1 0;
#X connect 5 0 11 0;
#X connect 6 0 12 0;
#X connect 7 0 13 0;
#X connect 8 0 5 0;
#X connect 9 0 6 0;
#X connect 10 0 7 0;
#X connect 11 0 0 0;
#X connect 12 0 0 0;
#X connect 13 0 0 0;
#X restore 31 148 pd cpufreq;
#X obj 612 26 declare -lib zexy;
#X obj 612 46 declare -lib comport;
#X obj 166 217 declare -path mtl;
#X obj 612 66 declare -lib ggee/shell;
#X obj 166 257 declare -path ./;
#X obj 612 86 declare -lib iemlib1;
#X obj 612 107 declare -lib iemlib2;
#X obj 165 25 declare -path /home/psc/Documents/Pd/externals/hcs;
#X obj 165 45 declare -path /home/psc/Documents/Pd/externals/creb;
#X obj 165 65 declare -path /home/psc/Documents/Pd/externals/oscx;
#X obj 165 85 declare -path /home/psc/Documents/Pd/externals/motex
;
#X obj 166 347 declare -path ./bin/verbkit;
#X obj 166 287 declare -path ./bin/crip;
#X obj 166 307 declare -path ./bin/dyna;
#X obj 166 327 declare -path ./bin/slic;
#X connect 0 0 1 0;
#X restore 555 200 pd init;
#N canvas 517 250 1360 710 korg 0;
#N canvas 764 294 684 547 native_mode 0;
#X obj 74 482 midiout;
#X msg 74 184 240 \, 66 \, 64 \, 110 \, 8 \, 0 \, 0 \, 1 \, 247;
#X msg 99 213 240 \, 66 \, 64 \, 110 \, 8 \, 0 \, 0 \, 0 \, 247;
#X msg 159 272 240 \, 66 \, 64 \, 110 \, 8 \, 63 \, 42 \, 0 \, 0 \,
5 \, 9 \, 9 \, 16 \, 17 \, 127 \, 127 \, 3 \, 9 \, 9 \, 9 \, 9 \, 9
\, 9 \, 9 \, 9 \, 9 \, 9 \, 9 \, 9 \, 9 \, 9 \, 9 \, 9 \, 1 \, 2 \,
3 \, 4 \, 5 \, 6 \, 7 \, 8 \, 9 \, 10 \, 11 \, 12 \, 13 \, 14 \, 15
\, 16 \, 247;
#X msg 140 348 240 \, 66 \, 64 \, 110 \, 8 \, 63 \, 10 \, 1 \, 127
\, 127 \, 127 \, 127 \, 127 \, 3 \, 83 \, 69 \, 89 \, 247;
#X obj 104 125 bng 30 250 50 0 empty empty start 0 -6 0 10 -4034 -1
-1;
#X msg 122 411 240 \, 66 \, 64 \, 110 \, 8 \, 63 \, 10 \, 1 \, 0 \,
0 \, 0 \, 0 \, 0 \, 3 \, 83 \, 69 \, 89 \, 247;
#X obj 150 125 bng 30 250 50 0 empty empty stop 0 -6 0 10 -258113 -1
-1;
#X text 293 184 start native mode;
#X text 328 214 stop native mode;
#X text 534 284 set sysex and midi;
#X text 514 357 turn on all lights;
#X text 496 421 turn off all lights;
#X obj 159 248 delay 250;
#X obj 140 323 delay 250;
#X obj 122 388 delay 250;
#X obj 109 50 loadbang;
#X obj 294 54 r korgpstart;
#X connect 1 0 0 0;
#X connect 1 0 13 0;
#X connect 2 0 0 0;
#X connect 3 0 0 0;
#X connect 4 0 0 0;
#X connect 5 0 1 0;
#X connect 6 0 0 0;
#X connect 7 0 2 0;
#X connect 13 0 3 0;
#X connect 13 0 14 0;
#X connect 14 0 4 0;
#X connect 14 0 15 0;
#X connect 15 0 6 0;
#X connect 16 0 5 0;
#X connect 17 0 5 0;
#X coords 0 -1 1 1 85 60 1 100 100;
#X restore 36 28 pd native_mode;
#X obj 22 562 midiout;
#X msg 101 477 240 \, 66 \, 64 \, 110 \, 8 \, 1 \, \$1 \, 0 \, 247
;
#X floatatom 103 457 5 0 0 0 - - -;
#X msg 106 432 240 \, 66 \, 64 \, 110 \, 8 \, 1 \, \$1 \, 32 \, 247
;
#X floatatom 107 411 5 0 0 0 - - -;
#N canvas 459 181 506 458 side_buttons 0;
#X obj 106 127 tgl 15 0 empty empty empty 17 7 0 10 -262144 -1 -1 0
1;
#X obj 139 127 tgl 15 0 empty empty empty 17 7 0 10 -262144 -1 -1 0
1;
#X obj 172 127 tgl 15 0 empty empty empty 17 7 0 10 -262144 -1 -1 0
1;
#X obj 106 152 tgl 15 0 empty empty empty 17 7 0 10 -262144 -1 -1 0
1;
#X obj 139 152 tgl 15 0 empty empty empty 17 7 0 10 -262144 -1 -1 0
1;
#X obj 172 152 tgl 15 0 empty empty empty 17 7 0 10 -262144 -1 -1 0
1;
#X obj 106 174 tgl 15 0 empty empty empty 17 7 0 10 -262144 -1 -1 0
1;
#X obj 139 178 tgl 15 0 empty empty empty 17 7 0 10 -262144 -1 -1 0
1;
#X obj 172 178 tgl 15 0 empty empty empty 17 7 0 10 -262144 -1 -1 0
1;
#X obj 95 -24 route 2 11 12 15 3 4 5 6 7 8;
#X obj 95 -80 r \$0-sideButs;
#X obj 95 -52 route 72 67;
#X obj 296 13 / 127;
#X obj 284 48 / 127;
#X obj 283 72 / 127;
#X obj 284 102 / 127;
#X obj 284 128 / 127;
#X obj 283 152 / 127;
#X obj 285 179 / 127;
#X obj 283 209 / 127;
#X obj 283 233 / 127;
#X connect 9 1 12 0;
#X connect 9 2 13 0;
#X connect 9 3 14 0;
#X connect 9 4 15 0;
#X connect 9 5 16 0;
#X connect 9 6 17 0;
#X connect 9 7 18 0;
#X connect 9 8 19 0;
#X connect 9 9 20 0;
#X connect 10 0 11 0;
#X connect 11 0 9 0;
#X connect 12 0 0 0;
#X connect 13 0 1 0;
#X connect 14 0 2 0;
#X connect 15 0 3 0;
#X connect 16 0 4 0;
#X connect 17 0 5 0;
#X connect 18 0 6 0;
#X connect 19 0 7 0;
#X connect 20 0 8 0;
#X coords 0 -1 1 1 100 100 1 100 100;
#X restore 29 179 pd side_buttons;
#N canvas 2 82 450 300 padTriggers 0;
#X obj 110 41 stripnote;
#X obj 110 121 bng 20 250 50 0 empty empty empty 17 7 0 10 -204786
-1 -1;
#X obj 136 121 bng 20 250 50 0 empty empty empty 17 7 0 10 -203904
-1 -1;
#X obj 162 120 bng 20 250 50 0 empty empty empty 17 7 0 10 -232576
-1 -1;
#X obj 188 120 bng 20 250 50 0 empty empty empty 17 7 0 10 -258113
-1 -1;
#X obj 110 146 bng 20 250 50 0 empty empty empty 17 7 0 10 -260097
-1 -1;
#X obj 136 145 bng 20 250 50 0 empty empty empty 17 7 0 10 -159808
-1 -1;
#X obj 162 145 bng 20 250 50 0 empty empty empty 17 7 0 10 -13381 -1
-1;
#X obj 188 145 bng 20 250 50 0 empty empty empty 17 7 0 10 -4160 -1
-1;
#X obj 110 171 bng 20 250 50 0 empty empty empty 17 7 0 10 -86277 -1
-1;
#X obj 136 171 bng 20 250 50 0 empty empty empty 17 7 0 10 -257985
-1 -1;
#X obj 162 170 bng 20 250 50 0 empty empty empty 17 7 0 10 -4034 -1
-1;
#X obj 188 170 bng 20 250 50 0 empty empty empty 17 7 0 10 -261682
-1 -1;
#X obj 110 196 bng 20 250 50 0 empty empty empty 17 7 0 10 -83269 -1
-1;
#X obj 136 196 bng 20 250 50 0 empty empty empty 17 7 0 10 -262144
-1 -1;
#X obj 162 196 bng 20 250 50 0 empty empty empty 17 7 0 10 -232576
-1 -1;
#X obj 188 195 bng 20 250 50 0 empty empty empty 17 7 0 10 -204800
-1 -1;
#X obj 110 12 notein 10;
#X floatatom 174 41 5 0 0 0 - - -;
#X obj 110 71 select 1 2 3 4 5 6 7 8 9 10 11 12 13 14 15 16;
#X connect 0 0 18 0;
#X connect 0 0 19 0;
#X connect 17 0 0 0;
#X connect 17 1 0 1;
#X connect 19 0 1 0;
#X connect 19 1 2 0;
#X connect 19 2 3 0;
#X connect 19 3 4 0;
#X connect 19 4 5 0;
#X connect 19 5 6 0;
#X connect 19 6 7 0;
#X connect 19 7 8 0;
#X connect 19 8 9 0;
#X connect 19 9 10 0;
#X connect 19 10 11 0;
#X connect 19 11 12 0;
#X connect 19 12 13 0;
#X connect 19 13 14 0;
#X connect 19 14 15 0;
#X connect 19 15 16 0;
#X coords 0 -1 1 1 119 120 1 100 100;
#X restore 281 226 pd padTriggers;
#N canvas 222 313 782 454 top_knobs 0;
#X obj 109 134 tgl 20 0 empty empty empty 17 7 0 10 -262144 -1 -1 0
1;
#X obj 188 134 tgl 20 0 empty empty empty 17 7 0 10 -262144 -1 -1 0
1;
#X obj 168 -93 route 73 72;
#X obj 168 -60 route 0 1;
#X obj 244 -59 route 13 14;
#X obj 168 -122 r \$0-sideButs;
#X obj 275 -22 / 127;
#X obj 109 -22 / 127;
#X floatatom 141 104 5 0 0 0 - - -;
#X floatatom 141 122 5 0 0 0 - - -;
#X floatatom 212 104 5 0 0 0 - - -;
#X connect 2 0 3 0;
#X connect 2 1 4 0;
#X connect 3 0 8 0;
#X connect 3 1 10 0;
#X connect 4 0 7 0;
#X connect 4 1 6 0;
#X connect 5 0 2 0;
#X connect 6 0 1 0;
#X connect 7 0 0 0;
#X connect 8 0 9 0;
#X coords 0 -1 1 1 160 60 1 100 100;
#X restore 282 133 pd top_knobs;
#N canvas 594 364 619 403 button_strip 0;
#X obj 108 120 tgl 20 0 empty empty empty 17 7 0 10 -262144 -1 -1 0
1;
#X obj 108 147 tgl 20 0 empty empty empty 17 7 0 10 -262144 -1 -1 0
1;
#X obj 108 175 tgl 20 0 empty empty empty 17 7 0 10 -262144 -1 -1 0
1;
#X obj 108 202 tgl 20 0 empty empty empty 17 7 0 10 -262144 -1 -1 0
1;
#X obj 107 240 tgl 20 0 empty empty empty 17 7 0 10 -262144 -1 -1 0
1;
#X obj 107 268 tgl 20 0 empty empty empty 17 7 0 10 -262144 -1 -1 0
1;
#X obj 107 295 tgl 20 0 empty empty empty 17 7 0 10 -262144 -1 -1 0
1;
#X obj 78 -24 r \$0-sideButs;
#X obj 78 4 route 72 67;
#X obj 78 32 route 0 1 9 10 18 17 16;
#X obj 243 65 / 127;
#X obj 243 93 / 127;
#X obj 243 122 / 127;
#X obj 243 149 / 127;
#X obj 243 202 / 127;
#X obj 243 231 / 127;
#X obj 243 258 / 127;
#X obj 260 290 s korgroll;
#X connect 7 0 8 0;
#X connect 8 0 9 0;
#X connect 9 0 10 0;
#X connect 9 1 11 0;
#X connect 9 2 12 0;
#X connect 9 3 13 0;
#X connect 9 4 14 0;
#X connect 9 5 15 0;
#X connect 9 6 16 0;
#X connect 10 0 0 0;
#X connect 11 0 1 0;
#X connect 12 0 2 0;
#X connect 13 0 3 0;
#X connect 14 0 4 0;
#X connect 15 0 5 0;
#X connect 16 0 6 0;
#X connect 16 0 17 0;
#X coords 0 -1 1 1 40 220 1 100 100;
#X restore 164 64 pd button_strip;
#N canvas 293 112 1066 655 moment_pads 0;
#X obj 109 19 r \$0-sideButs;
#X obj 109 43 route 69;
#X obj 288 -57 select 64 0;
#X obj 110 117 tgl 20 0 empty empty empty 17 7 0 10 -262144 -1 -1 0
1;
#X obj 136 117 tgl 20 0 empty empty empty 17 7 0 10 -262144 -1 -1 0
1;
#X obj 163 117 tgl 20 0 empty empty empty 17 7 0 10 -262144 -1 -1 0
1;
#X obj 191 117 tgl 20 0 empty empty empty 17 7 0 10 -262144 -1 -1 0
1;
#X obj 110 146 tgl 20 0 empty empty empty 17 7 0 10 -262144 -1 -1 0
1;
#X obj 136 146 tgl 20 0 empty empty empty 17 7 0 10 -262144 -1 -1 0
1;
#X obj 163 146 tgl 20 0 empty empty empty 17 7 0 10 -262144 -1 -1 0
1;
#X obj 191 146 tgl 20 0 empty empty empty 17 7 0 10 -262144 -1 -1 0
1;
#X obj 110 177 tgl 20 0 empty empty empty 17 7 0 10 -262144 -1 -1 0
1;
#X obj 136 177 tgl 20 0 empty empty empty 17 7 0 10 -262144 -1 -1 0
1;
#X obj 163 177 tgl 20 0 empty empty empty 17 7 0 10 -262144 -1 -1 0
1;
#X obj 191 177 tgl 20 0 empty empty empty 17 7 0 10 -262144 -1 -1 0
1;
#X obj 110 205 tgl 20 0 empty empty empty 17 7 0 10 -262144 -1 -1 0
1;
#X obj 136 205 tgl 20 0 empty empty empty 17 7 0 10 -262144 -1 -1 0
1;
#X obj 163 205 tgl 20 0 empty empty empty 17 7 0 10 -262144 -1 -1 0
1;
#X obj 191 205 tgl 20 0 empty empty empty 17 7 0 10 -262144 -1 -1 0
1;
#X obj 288 -9 select 65 1;
#X obj 288 39 select 66 2;
#X obj 288 85 select 67 3;
#X obj 349 145 select 68 4;
#X obj 349 190 select 69 5;
#X obj 349 233 select 70 6;
#X obj 349 278 select 71 7;
#X obj -47 -49 select 72 8;
#X obj -47 -2 select 73 9;
#X obj -47 41 select 74 10;
#X obj -48 86 select 75 11;
#X obj -76 142 select 76 12;
#X obj -76 185 select 77 13;
#X obj -76 230 select 78 14;
#X obj -76 271 select 79 15;
#X msg 288 -35 1;
#X msg 319 -35 0;
#X msg 288 12 1;
#X msg 319 12 0;
#X msg 288 62 1;
#X msg 319 62 0;
#X msg 288 108 1;
#X msg 319 108 0;
#X msg 349 166 1;
#X msg 380 166 0;
#X msg 349 211 1;
#X msg 380 211 0;
#X msg 349 254 1;
#X msg 380 254 0;
#X msg 349 301 1;
#X msg 380 301 0;
#X msg -47 -28 1;
#X msg -16 -28 0;
#X msg -47 19 1;
#X msg -16 19 0;
#X msg -47 62 1;
#X msg -13 62 0;
#X msg -48 107 1;
#X msg -14 107 0;
#X msg -76 163 1;
#X msg -42 163 0;
#X msg -76 206 1;
#X msg -42 206 0;
#X msg -76 251 1;
#X msg -42 251 0;
#X msg -76 292 1;
#X msg -42 292 0;
#X connect 0 0 1 0;
#X connect 1 0 2 0;
#X connect 1 0 19 0;
#X connect 1 0 20 0;
#X connect 1 0 21 0;
#X connect 1 0 22 0;
#X connect 1 0 23 0;
#X connect 1 0 24 0;
#X connect 1 0 25 0;
#X connect 1 0 26 0;
#X connect 1 0 27 0;
#X connect 1 0 28 0;
#X connect 1 0 29 0;
#X connect 1 0 30 0;
#X connect 1 0 31 0;
#X connect 1 0 32 0;
#X connect 1 0 33 0;
#X connect 2 0 34 0;
#X connect 2 1 35 0;
#X connect 19 0 36 0;
#X connect 19 1 37 0;
#X connect 20 0 38 0;
#X connect 20 1 39 0;
#X connect 21 0 40 0;
#X connect 21 1 41 0;
#X connect 22 0 42 0;
#X connect 22 1 43 0;
#X connect 23 0 44 0;
#X connect 23 1 45 0;
#X connect 24 0 46 0;
#X connect 24 1 47 0;
#X connect 25 0 48 0;
#X connect 25 1 49 0;
#X connect 26 0 50 0;
#X connect 26 1 51 0;
#X connect 27 0 52 0;
#X connect 27 1 53 0;
#X connect 28 0 54 0;
#X connect 28 1 55 0;
#X connect 29 0 56 0;
#X connect 29 1 57 0;
#X connect 30 0 58 0;
#X connect 30 1 59 0;
#X connect 31 0 60 0;
#X connect 31 1 61 0;
#X connect 32 0 62 0;
#X connect 32 1 63 0;
#X connect 33 0 64 0;
#X connect 33 1 65 0;
#X connect 34 0 3 0;
#X connect 35 0 3 0;
#X connect 36 0 4 0;
#X connect 37 0 4 0;
#X connect 38 0 5 0;
#X connect 39 0 5 0;
#X connect 40 0 6 0;
#X connect 41 0 6 0;
#X connect 42 0 7 0;
#X connect 43 0 7 0;
#X connect 44 0 8 0;
#X connect 45 0 8 0;
#X connect 46 0 9 0;
#X connect 47 0 9 0;
#X connect 48 0 10 0;
#X connect 49 0 10 0;
#X connect 50 0 11 0;
#X connect 51 0 11 0;
#X connect 52 0 12 0;
#X connect 53 0 12 0;
#X connect 54 0 13 0;
#X connect 55 0 13 0;
#X connect 56 0 14 0;
#X connect 57 0 14 0;
#X connect 58 0 15 0;
#X connect 59 0 15 0;
#X connect 60 0 16 0;
#X connect 61 0 16 0;
#X connect 62 0 17 0;
#X connect 63 0 17 0;
#X connect 64 0 18 0;
#X connect 65 0 18 0;
#X coords 0 -1 1 1 120 130 1 100 100;
#X restore 422 233 pd moment_pads;
#N canvas 688 242 671 447 raw_MIDI 0;
#X floatatom 122 19 0 0 0 0 - - -;
#X floatatom 155 20 3 0 0 0 - - -;
#X obj 110 71 unpack 0 0 0 0 0 0 0 0 0;
#X floatatom 11 111 5 0 0 0 - - -;
#X floatatom 205 124 5 0 0 0 - - -;
#X floatatom 316 102 5 0 0 0 - - -;
#X floatatom 52 111 5 0 0 0 - - -;
#X floatatom 88 111 5 0 0 0 - - -;
#X floatatom 124 111 5 0 0 0 - - -;
#X floatatom 160 111 5 0 0 0 - - -;
#X floatatom 241 123 5 0 0 0 - - -;
#X floatatom 279 124 5 0 0 0 - - -;
#X obj 110 -6 midiin;
#X obj 110 45 thresh 5;
#X obj 205 153 pack 0 0 0;
#X obj 205 181 s \$0-sideButs;
#X connect 2 0 3 0;
#X connect 2 1 6 0;
#X connect 2 2 7 0;
#X connect 2 3 8 0;
#X connect 2 4 9 0;
#X connect 2 5 4 0;
#X connect 2 6 10 0;
#X connect 2 7 11 0;
#X connect 2 8 5 0;
#X connect 4 0 14 0;
#X connect 10 0 14 1;
#X connect 11 0 14 2;
#X connect 12 0 0 0;
#X connect 12 0 13 0;
#X connect 12 1 1 0;
#X connect 13 0 2 0;
#X connect 14 0 15 0;
#X restore 472 50 pd raw_MIDI;
#N canvas 259 363 576 431 clear_LCD 0;
#X obj 105 218 line;
#X msg 105 295 240 \, 66 \, 64 \, 110 \, 8 \, 1 \, \$1 \, 0 \, 247
;
#X floatatom 105 270 5 0 0 0 - - -;
#X obj 105 243 int;
#X obj 105 363 midiout;
#X obj 105 118 bng 15 250 50 0 empty empty empty 17 7 0 10 -262144
-1 -1;
#X msg 105 189 40 \, 62 500;
#X connect 0 0 3 0;
#X connect 1 0 4 0;
#X connect 2 0 1 0;
#X connect 3 0 2 0;
#X connect 5 0 6 0;
#X connect 6 0 0 0;
#X coords 0 -1 1 1 60 40 1 100 100;
#X restore 480 140 pd clear_LCD;
#N canvas 271 315 793 491 yes_LCD 0;
#X msg 302 296 240 \, 66 \, 64 \, 110 \, 8 \, 1 \, \$1 \, 32 \, 247
;
#X obj 189 440 midiout;
#X obj 302 173 list split 1;
#X obj 324 230 list append;
#X floatatom 302 256 5 0 0 0 - - -;
#X obj 324 201 del;
#X msg 189 337 240 \, 66 \, 64 \, 110 \, 8 \, 1 \, \$1 \, 32 \, 247
;
#X obj 189 214 list split 1;
#X obj 211 271 list append;
#X floatatom 189 297 5 0 0 0 - - -;
#X obj 211 242 del;
#X msg 63 386 240 \, 66 \, 64 \, 110 \, 8 \, 1 \, \$1 \, 32 \, 247
;
#X obj 63 263 list split 1;
#X obj 85 320 list append;
#X floatatom 63 346 5 0 0 0 - - -;
#X obj 85 291 del;
#X msg 189 176 48 51 52 53 54;
#X msg 302 135 40 42 43 45 46;
#X msg 63 225 57 58 59 61 62;
#X obj 106 118 bng 15 250 50 0 empty empty empty 17 7 0 10 -262144
-1 -1;
#X connect 0 0 1 0;
#X connect 2 0 4 0;
#X connect 2 0 5 0;
#X connect 2 1 3 1;
#X connect 3 0 2 0;
#X connect 4 0 0 0;
#X connect 5 0 3 0;
#X connect 6 0 1 0;
#X connect 7 0 9 0;
#X connect 7 0 10 0;
#X connect 7 1 8 1;
#X connect 8 0 7 0;
#X connect 9 0 6 0;
#X connect 10 0 8 0;
#X connect 11 0 1 0;
#X connect 12 0 14 0;
#X connect 12 0 15 0;
#X connect 12 1 13 1;
#X connect 13 0 12 0;
#X connect 14 0 11 0;
#X connect 15 0 13 0;
#X connect 16 0 7 0;
#X connect 17 0 2 0;
#X connect 18 0 12 0;
#X connect 19 0 18 0;
#X connect 19 0 16 0;
#X connect 19 0 17 0;
#X coords 0 -1 1 1 60 40 1 100 100;
#X restore 482 84 pd yes_LCD;
#N canvas 909 360 450 300 main_knob 0;
#X obj 106 130 nbx 3 24 -1e+37 1e+37 0 0 empty empty empty 0 -8 0 20
-262144 -1 -1 0 256;
#X obj -22 -69 r \$0-sideButs;
#X obj -22 -41 route 72 67;
#X obj 9 -12 route 0;
#X obj 9 88 + 1;
#X obj 43 88 - 1;
#X obj 9 57 f;
#X obj 43 56 f;
#X obj 9 16 select 1 127;
#X obj 9 121 max 0;
#X obj 9 157 outlet;
#X msg 106 52 0;
#X obj 111 -34 route 2;
#X obj 111 -9 / 127;
#X obj 106 26 select 1;
#X obj 183 136 tgl 15 0 empty empty empty 17 7 0 10 -262144 -1 -1 0
1;
#X text 228 140 <-- resets the number to 0;
#X connect 0 0 7 1;
#X connect 0 0 6 1;
#X connect 1 0 2 0;
#X connect 2 0 12 0;
#X connect 2 1 3 0;
#X connect 3 0 8 0;
#X connect 4 0 9 0;
#X connect 5 0 9 0;
#X connect 6 0 4 0;
#X connect 7 0 5 0;
#X connect 8 0 6 0;
#X connect 8 1 7 0;
#X connect 9 0 0 0;
#X connect 9 0 10 0;
#X connect 11 0 0 0;
#X connect 12 0 13 0;
#X connect 13 0 14 0;
#X connect 13 0 15 0;
#X connect 14 0 11 0;
#X coords 0 -1 1 1 110 60 1 100 100;
#X restore 33 104 pd main_knob;
#X floatatom 99 499 5 0 0 0 - - -;
#X floatatom 98 540 5 0 0 0 - - -;
#X msg 99 517 240 \, 66 \, 64 \, 110 \, 8 \, 1 \, \$1 \, 68 \, 247
;
#X msg 99 558 240 \, 66 \, 64 \, 110 \, 8 \, 1 \, \$1 \, 99 \, 247
;
#X text 335 428 <- Light On message;
#X text 353 552 <- Blink message;
#X text 363 509 <- Flash On message;
#X text 329 475 <- Light Off message;
#X msg 620 320 240 \, 66 \, 64 \, 110 \, 8 \, 34 \, 4 \, 0 \, 48 \,
48 \, 48 \, 247;
#X obj 586 380 midiout;
#X msg 639 347 240 \, 66 \, 64 \, 110 \, 8 \, 34 \, 4 \, 0 \, 49 \,
49 \, 49 \, 247;
#X msg 601 288 240 \, 66 \, 64 \, 110 \, 8 \, 34 \, 4 \, 0 \, 41 \,
41 \, 41 \, 247;
#X text 928 289 <-- blank the LCD;
#X text 964 348 <-- 1 1 1;
#X text 951 321 <-- 0 0 0;
#N canvas 1 58 740 488 keypad 0;
#X obj 106 124 bng 30 250 50 0 empty empty 1 10 15 0 20 -262144 -1
-1;
#X obj 144 124 bng 30 250 50 0 empty empty 2 10 15 0 20 -262144 -1
-1;
#X obj 182 124 bng 30 250 50 0 empty empty 3 10 15 0 20 -262144 -1
-1;
#X obj 106 161 bng 30 250 50 0 empty empty 4 10 15 0 20 -262144 -1
-1;
#X obj 144 160 bng 30 250 50 0 empty empty 5 10 15 0 20 -262144 -1
-1;
#X obj 182 161 bng 30 250 50 0 empty empty 6 10 15 0 20 -262144 -1
-1;
#X obj 106 198 bng 30 250 50 0 empty empty 7 10 15 0 20 -262144 -1
-1;
#X obj 144 198 bng 30 250 50 0 empty empty 8 10 15 0 20 -262144 -1
-1;
#X obj 182 197 bng 30 250 50 0 empty empty 9 10 15 0 20 -262144 -1
-1;
#X obj 144 235 bng 30 250 50 0 empty empty 0 10 15 0 20 -262144 -1
-1;
#X msg 109 275 1;
#X msg 143 275 2;
#X msg 178 275 3;
#X msg 144 349 0;
#X msg 109 301 4;
#X msg 143 301 5;
#X msg 178 301 6;
#X msg 110 324 7;
#X obj 110 417 outlet;
#X msg 144 324 8;
#X msg 179 324 9;
#X connect 0 0 10 0;
#X connect 1 0 11 0;
#X connect 2 0 12 0;
#X connect 3 0 14 0;
#X connect 4 0 15 0;
#X connect 5 0 16 0;
#X connect 6 0 17 0;
#X connect 7 0 19 0;
#X connect 8 0 20 0;
#X connect 9 0 13 0;
#X connect 10 0 18 0;
#X connect 11 0 18 0;
#X connect 12 0 18 0;
#X connect 13 0 18 0;
#X connect 14 0 18 0;
#X connect 15 0 18 0;
#X connect 16 0 18 0;
#X connect 17 0 18 0;
#X connect 19 0 18 0;
#X connect 20 0 18 0;
#X coords 0 -1 1 1 120 175 1 100 100;
#X restore 581 39 pd keypad;
#X msg 579 253 240 \, 66 \, 64 \, 110 \, 8 \, 34 \, 4 \, 0 \, \$3 \,
\$2 \, \$1 \, 247;
#N canvas 888 222 471 488 binary_list 0;
#X obj 254 162 f;
#X obj 254 235 hradio 15 1 0 3 empty empty empty 0 -8 0 10 -262144
-1 -1 2;
#X floatatom 274 209 5 0 0 0 - - -;
#X obj 244 135 bng 15 250 50 0 empty empty empty 17 7 0 10 -262144
-1 -1;
#X msg 269 134 2;
#X obj 284 162 - 1;
#X obj 274 188 sel 0;
#X obj 191 302 pack f f f;
#X obj 42 37 select 0 1 2 3 4 5 6 7 8 9;
#X msg 42 67 48;
#X msg 76 67 49;
#X msg 111 67 50;
#X msg 145 66 51;
#X msg 180 66 52;
#X msg 214 66 53;
#X msg 249 66 54;
#X msg 283 65 55;
#X msg 315 65 56;
#X msg 353 65 57;
#X obj 41 6 inlet;
#X obj 191 369 outlet;
#X obj 269 109 loadbang;
#X obj 191 261 demux 0 1 2;
#X connect 0 0 1 0;
#X connect 0 0 2 0;
#X connect 0 0 5 0;
#X connect 0 0 6 0;
#X connect 1 0 22 1;
#X connect 3 0 0 0;
#X connect 4 0 0 1;
#X connect 5 0 0 1;
#X connect 6 0 4 0;
#X connect 7 0 20 0;
#X connect 8 0 9 0;
#X connect 8 1 10 0;
#X connect 8 2 11 0;
#X connect 8 3 12 0;
#X connect 8 4 13 0;
#X connect 8 5 14 0;
#X connect 8 6 15 0;
#X connect 8 7 16 0;
#X connect 8 8 17 0;
#X connect 8 9 18 0;
#X connect 9 0 22 0;
#X connect 10 0 22 0;
#X connect 11 0 22 0;
#X connect 12 0 22 0;
#X connect 13 0 22 0;
#X connect 14 0 22 0;
#X connect 15 0 22 0;
#X connect 16 0 22 0;
#X connect 17 0 22 0;
#X connect 18 0 22 0;
#X connect 19 0 8 0;
#X connect 19 0 3 0;
#X connect 21 0 4 0;
#X connect 22 0 7 0;
#X connect 22 1 7 1;
#X connect 22 2 7 2;
#X restore 583 219 pd binary_list;
#X text 149 410 <-- scroll;
#N canvas 214 164 1093 633 pad_light_feedback 0;
#X obj -74 428 midiout;
#X obj -74 273 select 1 2 3 4;
#X obj 205 428 midiout;
#X obj 205 273 select 5 6 7 8;
#X obj 476 428 midiout;
#X obj 476 273 select 9 10 11 12;
#X obj 756 423 midiout;
#X obj 756 268 select 13 14 15 16;
#X obj -74 70 notein 10;
#X floatatom -63 95 5 0 0 0 - - -;
#X floatatom -18 95 5 0 0 0 - - -;
#X obj -74 166 stripnote;
#X obj -74 133 spigot;
#X obj 105 124 tgl 16 0 empty empty empty 17 7 0 10 -262144 -1 -1 1
1;
#X obj -23 133 spigot;
#X obj 126 124 nbx 3 16 -1e+37 1e+37 0 0 empty empty note 0 24 0 14
-262144 -1 -1 9 256;
#X obj 179 124 nbx 3 16 -1e+37 1e+37 0 0 empty empty velocity 0 24
0 14 -262144 -1 -1 121 256;
#X msg -74 314 240 \, 66 \, 64 \, 110 \, 8 \, 1 \, 0 \, 68 \, 247;
#X msg -61 340 240 \, 66 \, 64 \, 110 \, 8 \, 1 \, 1 \, 68 \, 247;
#X msg -45 363 240 \, 66 \, 64 \, 110 \, 8 \, 1 \, 2 \, 68 \, 247;
#X msg -25 389 240 \, 66 \, 64 \, 110 \, 8 \, 1 \, 3 \, 68 \, 247;
#X msg 205 314 240 \, 66 \, 64 \, 110 \, 8 \, 1 \, 4 \, 68 \, 247;
#X msg 218 340 240 \, 66 \, 64 \, 110 \, 8 \, 1 \, 5 \, 68 \, 247;
#X msg 234 363 240 \, 66 \, 64 \, 110 \, 8 \, 1 \, 6 \, 68 \, 247;
#X msg 254 389 240 \, 66 \, 64 \, 110 \, 8 \, 1 \, 7 \, 68 \, 247;
#X msg 476 314 240 \, 66 \, 64 \, 110 \, 8 \, 1 \, 8 \, 68 \, 247;
#X msg 489 340 240 \, 66 \, 64 \, 110 \, 8 \, 1 \, 9 \, 68 \, 247;
#X msg 505 363 240 \, 66 \, 64 \, 110 \, 8 \, 1 \, 10 \, 68 \, 247
;
#X msg 525 389 240 \, 66 \, 64 \, 110 \, 8 \, 1 \, 11 \, 68 \, 247
;
#X msg 756 309 240 \, 66 \, 64 \, 110 \, 8 \, 1 \, 12 \, 68 \, 247
;
#X msg 769 335 240 \, 66 \, 64 \, 110 \, 8 \, 1 \, 13 \, 68 \, 247
;
#X msg 785 358 240 \, 66 \, 64 \, 110 \, 8 \, 1 \, 14 \, 68 \, 247
;
#X msg 805 384 240 \, 66 \, 64 \, 110 \, 8 \, 1 \, 15 \, 68 \, 247
;
#X obj 115 58 loadbang;
#X connect 1 0 17 0;
#X connect 1 1 18 0;
#X connect 1 2 19 0;
#X connect 1 3 20 0;
#X connect 3 0 21 0;
#X connect 3 1 22 0;
#X connect 3 2 23 0;
#X connect 3 3 24 0;
#X connect 5 0 25 0;
#X connect 5 1 26 0;
#X connect 5 2 27 0;
#X connect 5 3 28 0;
#X connect 7 0 29 0;
#X connect 7 1 30 0;
#X connect 7 2 31 0;
#X connect 7 3 32 0;
#X connect 8 0 9 0;
#X connect 8 0 12 0;
#X connect 8 1 10 0;
#X connect 8 1 14 0;
#X connect 11 0 1 0;
#X connect 11 0 3 0;
#X connect 11 0 5 0;
#X connect 11 0 7 0;
#X connect 11 0 15 0;
#X connect 11 1 16 0;
#X connect 12 0 11 0;
#X connect 13 0 12 1;
#X connect 13 0 14 1;
#X connect 14 0 11 1;
#X connect 17 0 0 0;
#X connect 18 0 0 0;
#X connect 19 0 0 0;
#X connect 20 0 0 0;
#X connect 21 0 2 0;
#X connect 22 0 2 0;
#X connect 23 0 2 0;
#X connect 24 0 2 0;
#X connect 25 0 4 0;
#X connect 26 0 4 0;
#X connect 27 0 4 0;
#X connect 28 0 4 0;
#X connect 29 0 6 0;
#X connect 30 0 6 0;
#X connect 31 0 6 0;
#X connect 32 0 6 0;
#X connect 33 0 13 0;
#X coords 0 -1 1 1 140 60 1 100 100;
#X restore 278 57 pd pad_light_feedback;
#X text 226 36 <-- start here;
#X text 58 649 ----- atarikai ---- atari.kai@gmail.com;
#N canvas 1 58 2143 1337 volumeAndPanning 0;
#X obj 224 131 route 73 72;
#X obj 224 102 r \$0-sideButs;
#X obj 374 243 s korgpot1;
#X obj 351 353 spigot;
#X obj 351 327 r korgpad;
#X obj 421 327 r korgpot1;
#X obj 160 766 s;
#X obj 189 291 inBetweens;
#X msg 186 577 symbol psvolume;
#X obj 461 242 s korgpot2;
#X obj 83 296 inBetweens;
#X msg 269 528 symbol bitwig;
#X msg 290 550 symbol psvolumeadc1;
#X msg 390 766 symbol psvolumeadc2;
#X msg 362 503 symbol pskickvol;
#X msg 371 527 symbol psfreevol;
#X obj 185 428 clip 0 1;
#X obj 189 316 phiscale 2 127 0 1;
#X obj 66 604 s;
#X msg 81 580 symbol pan;
#X msg 554 610 symbol na;
#X msg 480 505 symbol psloopervol;
#X obj 349 372 sel 13 14 15 16 9 10 1;
#X obj 224 167 route 0 1 2;
#X obj 375 145 route 13 14 2;
#X obj 548 92 s thereminreset;
#X obj 545 66 sel 127;
#X obj 557 558 r deactknob2;
#X obj 557 581 b;
#X obj 537 425 t b b;
#X obj 567 448 s deactknob2;
#X obj 430 433 t b b;
#X obj 460 456 s deactknob2;
#X obj 510 363 t b b;
#X obj 540 386 s deactknob2;
#X obj 560 323 t b b;
#X obj 590 346 s deactknob2;
#X obj 620 283 t b b;
#X obj 650 306 s deactknob2;
#X obj 660 253 t b b;
#X obj 690 276 s deactknob2;
#X obj 710 213 t b b;
#X obj 740 236 s deactknob2;
#X connect 0 0 23 0;
#X connect 0 1 24 0;
#X connect 1 0 0 0;
#X connect 3 0 22 0;
#X connect 4 0 3 0;
#X connect 5 0 3 1;
#X connect 7 0 17 0;
#X connect 8 0 6 1;
#X connect 10 0 18 0;
#X connect 11 0 6 1;
#X connect 12 0 6 1;
#X connect 13 0 6 1;
#X connect 14 0 6 1;
#X connect 15 0 6 1;
#X connect 16 0 6 0;
#X connect 17 0 16 0;
#X connect 19 0 18 1;
#X connect 20 0 6 1;
#X connect 20 0 18 1;
#X connect 21 0 6 1;
#X connect 22 0 19 0;
#X connect 22 0 41 0;
#X connect 22 1 39 0;
#X connect 22 2 37 0;
#X connect 22 3 35 0;
#X connect 22 4 33 0;
#X connect 22 5 31 0;
#X connect 22 6 29 0;
#X connect 22 7 20 0;
#X connect 23 0 10 0;
#X connect 23 1 7 0;
#X connect 24 0 2 0;
#X connect 24 1 9 0;
#X connect 24 2 26 0;
#X connect 26 0 25 0;
#X connect 27 0 28 0;
#X connect 28 0 20 0;
#X connect 29 0 21 0;
#X connect 29 1 30 0;
#X connect 31 0 15 0;
#X connect 31 1 32 0;
#X connect 33 0 14 0;
#X connect 33 1 34 0;
#X connect 35 0 13 0;
#X connect 35 1 36 0;
#X connect 37 0 12 0;
#X connect 37 1 38 0;
#X connect 39 0 11 0;
#X connect 39 1 40 0;
#X connect 41 0 8 0;
#X connect 41 1 42 0;
#X restore 1025 43 pd volumeAndPanning;
#N canvas 907 629 1111 515 looperTapTempoMute 0;
#X text 49 20 looper;
#X obj 57 51 r \$0-sideButs;
#X obj 57 79 route 72 67;
#X obj 55 129 / 127;
#X obj 176 204 / 127;
#X obj 309 185 / 127;
#X obj 55 151 sel 1;
#X obj 177 225 sel 1;
#X obj 309 205 sel 1;
#X obj 50 357 midiout;
#X msg 51 335 240 \, 66 \, 64 \, 110 \, 8 \, 1 \, \$1 \, 0 \, 247;
#X obj 55 202 tgl 15 0 empty empty empty 17 7 0 10 -262144 -1 -1 0
1;
#X obj 78 177 sel 1;
#X msg 50 313 240 \, 66 \, 64 \, 110 \, 8 \, 1 \, \$1 \, 32 \, 247
;
#X obj 105 198 t b;
#X obj 52 268 s pslooperrec_btn;
#X obj 53 223 t b;
#X text 55 295 leds;
#X obj 170 268 s pslooperoveron_btn;
#X obj 305 268 s pslooperoveroff_btn;
#X obj 174 249 tgl 15 0 empty empty empty 17 7 0 10 -262144 -1 -1 0
1;
#X obj 220 202 sel 1;
#X obj 247 223 t b;
#X obj 217 243 t b;
#X obj 310 248 s pslooperreset_btn;
#X msg 52 246 1;
#X msg 309 228 1;
#X obj 475 216 / 127;
#X obj 475 262 s korgmute;
#X obj 475 239 != 1;
#X text 476 194 mute;
#X msg 78 198 16;
#X msg 105 221 16;
#X msg 216 224 17;
#X msg 247 246 17;
#X text 469 127 tap tempo;
#X obj 470 168 s taptempo;
#X obj 469 146 sel 127;
#X obj 565 216 / 127;
#X obj 565 262 s korgfreeze;
#X text 566 194 freeze;
#X floatatom 182 47 5 0 0 0 - - -;
#X obj 635 216 / 127;
#X floatatom 635 239 5 0 0 0 - - -;
#X obj 673 280 s korgrevdelays;
#X obj 712 232 s korgrevdelay;
#X obj 712 207 spigot;
#X obj 705 156 phiscale 0 127 2 5000;
#X obj 349 48 route 73 72;
#X obj 349 81 route 0 1;
#X obj 635 152 inBetweens;
#X floatatom 648 92 5 0 0 0 - - -;
#X obj 858 203 sel 2;
#X obj 863 319 s psvolume;
#X obj 888 240 t b;
#X msg 887 268 1, f 8;
#X obj 861 295 change;
#X obj 732 356 sel 0;
#X msg 843 236 0.5;
#X obj 450 480 s korgpitch;
#X obj 457 375 inBetweens;
#X obj 447 411 phiscale 0 127 0 1;
#X obj 498 446 / 127;
#X obj 445 448 spigot;
#X floatatom 10 108 5 0 0 0 - - -;
#X obj 57 100 route 0 1 9 10 11 12 15 6 7;
#X obj 607 387 inBetweens;
#X obj 651 440 / 127;
#X obj 605 448 spigot;
#X obj 610 480 s korgoctova;
#X obj 771 439 int;
#X obj 607 411 phiscale 0 127 0 9;
#X connect 1 0 2 0;
#X connect 1 0 48 0;
#X connect 2 0 41 0;
#X connect 2 0 65 0;
#X connect 3 0 6 0;
#X connect 4 0 7 0;
#X connect 5 0 8 0;
#X connect 6 0 11 0;
#X connect 7 0 20 0;
#X connect 8 0 26 0;
#X connect 10 0 9 0;
#X connect 11 0 12 0;
#X connect 11 0 16 0;
#X connect 12 0 31 0;
#X connect 12 1 14 0;
#X connect 13 0 9 0;
#X connect 14 0 32 0;
#X connect 16 0 25 0;
#X connect 20 0 21 0;
#X connect 21 0 33 0;
#X connect 21 0 23 0;
#X connect 21 1 22 0;
#X connect 22 0 34 0;
#X connect 22 0 19 0;
#X connect 23 0 18 0;
#X connect 25 0 15 0;
#X connect 26 0 24 0;
#X connect 27 0 29 0;
#X connect 29 0 28 0;
#X connect 31 0 13 0;
#X connect 32 0 10 0;
#X connect 33 0 13 0;
#X connect 34 0 10 0;
#X connect 37 0 36 0;
#X connect 38 0 39 0;
#X connect 42 0 43 0;
#X connect 42 0 44 0;
#X connect 42 0 46 1;
#X connect 42 0 57 0;
#X connect 46 0 45 0;
#X connect 46 0 52 0;
#X connect 47 0 46 0;
#X connect 47 0 51 0;
#X connect 48 0 49 0;
#X connect 49 0 50 0;
#X connect 49 0 60 0;
#X connect 49 1 66 0;
#X connect 50 0 47 0;
#X connect 52 0 58 0;
#X connect 52 1 54 0;
#X connect 54 0 55 0;
#X connect 55 0 56 0;
#X connect 56 0 53 0;
#X connect 57 0 54 0;
#X connect 58 0 56 0;
#X connect 60 0 61 0;
#X connect 61 0 63 0;
#X connect 62 0 63 1;
#X connect 63 0 59 0;
#X connect 65 0 3 0;
#X connect 65 1 4 0;
#X connect 65 2 5 0;
#X connect 65 3 37 0;
#X connect 65 4 27 0;
#X connect 65 5 38 0;
#X connect 65 6 42 0;
#X connect 65 7 62 0;
#X connect 65 7 67 0;
#X connect 66 0 71 0;
#X connect 67 0 68 1;
#X connect 68 0 69 0;
#X connect 70 0 68 0;
#X connect 71 0 70 0;
#X restore 1026 71 pd looperTapTempoMute;
#N canvas 578 296 1192 647 sampler 0;
#X obj 198 328 s sfshuffle;
#X obj 123 94 stripnote;
#X obj 142 13 notein 10;
#X obj 210 269 sel 4;
#X msg 306 296 \; ion\$1 0;
#X obj 24 187 s korgpad;
#X text 73 41 sampler;
#X obj 394 16 r korghold;
#X obj 371 69 spigot;
#X obj 396 40 != 1;
#X obj 476 43 loadbang;
#X msg 476 69 1;
#X obj 469 14 r korgflam;
#X obj 543 15 r korgroll;
#X obj 619 16 r korgpot1;
#X obj 618 41 != 127;
#X connect 1 0 5 0;
#X connect 1 0 8 0;
#X connect 2 0 1 0;
#X connect 2 1 1 1;
#X connect 3 0 0 0;
#X connect 3 1 4 0;
#X connect 7 0 9 0;
#X connect 8 0 3 0;
#X connect 9 0 8 1;
#X connect 10 0 11 0;
#X connect 11 0 8 1;
#X connect 12 0 9 0;
#X connect 13 0 9 0;
#X connect 14 0 15 0;
#X connect 15 0 8 1;
#X restore 1030 95 pd sampler;
#N canvas -217 277 2136 1220 fx 0;
#X text 26 14 fx - xy pad;
#X floatatom 80 306 5 0 0 1 Xpad - -;
#X floatatom 133 270 5 0 0 1 Ypad - -;
#X obj 37 243 ctlin 16 10;
#X obj 117 236 ctlin 17 10;
#X obj 39 270 / 127;
#X obj 158 316 / 127;
#X obj 39 399 s pssjx;
#X obj 111 399 s pssjy;
#X obj 352 163 tgl 20 0 empty empty empty 17 7 0 10 -262144 -1 -1 0
1;
#X obj 482 164 tgl 20 0 empty empty empty 17 7 0 10 -262144 -1 -1 0
1;
#X obj 287 45 r \$0-sideButs;
#X obj 287 73 route 72 67;
#X obj 287 101 route 0 1 9 10 18 17 16;
#X obj 380 134 / 127;
#X obj 516 142 / 127;
#X obj 514 168 s korgroll;
#X obj 380 158 s korgflam;
#X obj 1234 234 pack f f;
#X obj 1260 213 t b f;
#X obj 1234 212 f;
#X obj 1233 378 spigot;
#X obj 1408 87 spigot;
#X obj 1408 61 r korgpad;
#X obj 1416 109 sel 13 14 15 16;
#X obj 1471 64 r korgflam;
#X msg 1443 159 0, f 2;
#X msg 1416 158 1;
#X msg 1463 209 0, f 2;
#X msg 1436 208 1;
#X msg 1483 259 0, f 2;
#X msg 1456 258 1;
#X msg 1503 319 0, f 2;
#X msg 1476 318 1;
#X obj 1293 404 s delay2;
#X obj 1294 377 spigot;
#X obj 1355 381 spigot;
#X obj 1417 374 spigot;
#X obj 1412 406 s reverb2;
#X obj 1233 404 s filter2;
#X obj 1353 404 s krunch2;
#X obj 112 376 spigot;
#X obj 37 375 spigot;
#X obj 502 210 t b b;
#X msg 502 233 1;
#X msg 531 231 0;
#X obj 260 375 spigot;
#X obj 185 374 spigot;
#X obj 259 398 s pssjy2;
#X obj 187 398 s pssjx2;
#X obj 503 189 sel 1;
#X obj 376 206 t b b;
#X msg 376 229 1;
#X msg 405 227 0;
#X obj 377 185 sel 1;
#X obj 1233 179 r pssjx2;
#X obj 1287 177 r pssjy2;
#X obj 1604 234 pack f f;
#X obj 1630 213 t b f;
#X obj 1604 212 f;
#X obj 1603 378 spigot;
#X obj 1778 87 spigot;
#X obj 1778 61 r korgpad;
#X obj 1786 109 sel 13 14 15 16;
#X msg 1813 159 0, f 2;
#X msg 1786 158 1;
#X msg 1833 209 0, f 2;
#X msg 1806 208 1;
#X msg 1853 259 0, f 2;
#X msg 1826 258 1;
#X msg 1873 319 0, f 2;
#X msg 1846 318 1;
#X obj 1664 377 spigot;
#X obj 1725 381 spigot;
#X obj 1787 374 spigot;
#X obj 1603 179 r pssjx3;
#X obj 1657 177 r pssjy3;
#X obj 1603 404 s filter3;
#X obj 1663 404 s delay3;
#X obj 1723 404 s krunch3;
#X obj 1782 406 s reverb3;
#X obj 1841 64 r korghold;
#X obj 242 173 tgl 20 0 empty empty empty 17 7 0 10 -262144 -1 -1 0
1;
#X obj 270 144 / 127;
#X obj 266 216 t b b;
#X msg 266 239 1;
#X msg 295 237 0;
#X obj 267 195 sel 1;
#X obj 430 375 spigot;
#X obj 355 374 spigot;
#X obj 434 401 s pssjy3;
#X obj 357 398 s pssjx3;
#X obj 270 168 s korghold;
#X obj 1508 149 s ssfxa;
#X obj 1416 135 t b b b;
#X obj 1436 184 t b b b;
#X obj 1456 235 t b b b;
#X obj 1476 295 t b b b;
#X obj 1873 367 r ssfxa;
#X msg 1873 389 0;
#X obj 1491 373 r ssfxa;
#X msg 1491 395 0;
#X obj 1888 169 s ssfxa;
#X obj 1786 135 t b b b;
#X obj 1806 185 t b b b;
#X obj 1826 235 t b b b;
#X obj 1846 295 t b b b;
#X obj 75 663 pack f f;
#X obj 101 642 t b f;
#X obj 75 641 f;
#X obj 74 807 spigot;
#X obj 249 516 spigot;
#X obj 249 490 r korgpad;
#X msg 276 588 0, f 2;
#X msg 249 587 1;
#X msg 306 637 0, f 2;
#X msg 277 637 1;
#X msg 324 688 0, f 2;
#X msg 297 687 1;
#X msg 342 732 0, f 2;
#X msg 315 731 1;
#X obj 135 806 spigot;
#X obj 196 810 spigot;
#X obj 258 803 spigot;
#X obj 469 561 s ssfxa;
#X obj 249 564 t b b b;
#X obj 277 613 t b b b;
#X obj 297 664 t b b b;
#X obj 315 708 t b b b;
#X obj 509 742 r ssfxa;
#X msg 509 764 0;
#X obj 312 493 r korgroll;
#X obj 257 832 s reverb1;
#X obj 194 833 s krunch1;
#X obj 134 833 s delay1;
#X obj 74 833 s filter1;
#X obj 74 607 r pssjx;
#X obj 128 606 r pssjy;
#X obj 257 538 sel 13 14 15 16 9;
#X obj 329 803 spigot;
#X obj 329 832 s bufferfx1;
#X msg 339 587 1;
#X obj 339 564 t b b b;
#X obj 538 766 s deactknob2;
#X obj 656 543 route 73 72;
#X obj 656 514 r \$0-sideButs;
#X obj 656 579 route 0 1 2;
#X obj 677 772 s;
#X msg 692 726 symbol cfbufferfx1;
#X obj 677 605 inBetweens;
#X obj 677 656 clip 0 1;
#X obj 677 630 phiscale 2 127 0 1;
#X obj 930 629 r deactknob2;
#X msg 935 667 symbol na;
#X connect 3 0 1 0;
#X connect 3 0 5 0;
#X connect 4 0 2 0;
#X connect 4 0 6 0;
#X connect 5 0 42 0;
#X connect 5 0 47 0;
#X connect 5 0 89 0;
#X connect 6 0 41 0;
#X connect 6 0 46 0;
#X connect 6 0 88 0;
#X connect 11 0 12 0;
#X connect 12 0 13 0;
#X connect 13 4 83 0;
#X connect 13 5 14 0;
#X connect 13 6 15 0;
#X connect 14 0 9 0;
#X connect 14 0 17 0;
#X connect 14 0 54 0;
#X connect 15 0 10 0;
#X connect 15 0 16 0;
#X connect 15 0 50 0;
#X connect 18 0 21 0;
#X connect 18 0 35 0;
#X connect 18 0 36 0;
#X connect 18 0 37 0;
#X connect 19 0 20 0;
#X connect 19 1 18 1;
#X connect 20 0 18 0;
#X connect 21 0 39 0;
#X connect 22 0 24 0;
#X connect 23 0 22 0;
#X connect 24 0 94 0;
#X connect 24 1 95 0;
#X connect 24 2 96 0;
#X connect 24 3 97 0;
#X connect 25 0 22 1;
#X connect 26 0 35 1;
#X connect 26 0 36 1;
#X connect 26 0 37 1;
#X connect 27 0 21 1;
#X connect 28 0 21 1;
#X connect 28 0 36 1;
#X connect 28 0 37 1;
#X connect 29 0 35 1;
#X connect 30 0 37 1;
#X connect 30 0 35 1;
#X connect 30 0 21 1;
#X connect 31 0 36 1;
#X connect 32 0 36 1;
#X connect 32 0 35 1;
#X connect 32 0 21 1;
#X connect 33 0 37 1;
#X connect 35 0 34 0;
#X connect 36 0 40 0;
#X connect 37 0 38 0;
#X connect 41 0 8 0;
#X connect 42 0 7 0;
#X connect 43 0 44 0;
#X connect 43 1 45 0;
#X connect 44 0 41 1;
#X connect 44 0 42 1;
#X connect 45 0 46 1;
#X connect 45 0 47 1;
#X connect 46 0 48 0;
#X connect 47 0 49 0;
#X connect 50 0 43 0;
#X connect 51 0 52 0;
#X connect 51 1 53 0;
#X connect 52 0 47 1;
#X connect 52 0 46 1;
#X connect 53 0 41 1;
#X connect 53 0 42 1;
#X connect 54 0 51 0;
#X connect 55 0 20 0;
#X connect 55 0 20 1;
#X connect 56 0 19 0;
#X connect 57 0 60 0;
#X connect 57 0 72 0;
#X connect 57 0 73 0;
#X connect 57 0 74 0;
#X connect 58 0 59 0;
#X connect 58 1 57 1;
#X connect 59 0 57 0;
#X connect 60 0 77 0;
#X connect 61 0 63 0;
#X connect 62 0 61 0;
#X connect 63 0 103 0;
#X connect 63 1 104 0;
#X connect 63 2 105 0;
#X connect 63 3 106 0;
#X connect 64 0 72 1;
#X connect 64 0 73 1;
#X connect 64 0 74 1;
#X connect 65 0 60 1;
#X connect 66 0 60 1;
#X connect 66 0 73 1;
#X connect 66 0 74 1;
#X connect 67 0 72 1;
#X connect 68 0 74 1;
#X connect 68 0 72 1;
#X connect 68 0 60 1;
#X connect 69 0 73 1;
#X connect 70 0 73 1;
#X connect 70 0 72 1;
#X connect 70 0 60 1;
#X connect 71 0 74 1;
#X connect 72 0 78 0;
#X connect 73 0 79 0;
#X connect 74 0 80 0;
#X connect 75 0 59 0;
#X connect 75 0 59 1;
#X connect 76 0 58 0;
#X connect 81 0 61 1;
#X connect 83 0 82 0;
#X connect 83 0 87 0;
#X connect 83 0 92 0;
#X connect 84 0 85 0;
#X connect 84 1 86 0;
#X connect 85 0 89 1;
#X connect 85 0 88 1;
#X connect 86 0 88 1;
#X connect 86 0 89 1;
#X connect 87 0 84 0;
#X connect 88 0 90 0;
#X connect 89 0 91 0;
#X connect 94 0 27 0;
#X connect 94 1 26 0;
#X connect 94 2 93 0;
#X connect 95 0 29 0;
#X connect 95 1 28 0;
#X connect 95 2 93 0;
#X connect 96 0 31 0;
#X connect 96 1 30 0;
#X connect 96 2 93 0;
#X connect 97 0 33 0;
#X connect 97 1 32 0;
#X connect 97 2 93 0;
#X connect 98 0 99 0;
#X connect 99 0 60 1;
#X connect 99 0 72 1;
#X connect 99 0 73 1;
#X connect 99 0 74 1;
#X connect 100 0 101 0;
#X connect 101 0 37 1;
#X connect 101 0 36 1;
#X connect 101 0 35 1;
#X connect 101 0 21 1;
#X connect 103 0 65 0;
#X connect 103 1 64 0;
#X connect 103 2 102 0;
#X connect 104 0 67 0;
#X connect 104 1 66 0;
#X connect 104 2 102 0;
#X connect 105 0 69 0;
#X connect 105 1 68 0;
#X connect 105 2 102 0;
#X connect 106 0 71 0;
#X connect 106 1 70 0;
#X connect 106 2 102 0;
#X connect 107 0 110 0;
#X connect 107 0 121 0;
#X connect 107 0 122 0;
#X connect 107 0 123 0;
#X connect 107 0 139 0;
#X connect 108 0 109 0;
#X connect 108 1 107 1;
#X connect 109 0 107 0;
#X connect 110 0 135 0;
#X connect 111 0 138 0;
#X connect 112 0 111 0;
#X connect 113 0 121 1;
#X connect 113 0 122 1;
#X connect 113 0 123 1;
#X connect 114 0 110 1;
#X connect 115 0 110 1;
#X connect 115 0 122 1;
#X connect 115 0 123 1;
#X connect 116 0 121 1;
#X connect 117 0 123 1;
#X connect 117 0 121 1;
#X connect 117 0 110 1;
#X connect 118 0 122 1;
#X connect 119 0 122 1;
#X connect 119 0 121 1;
#X connect 119 0 110 1;
#X connect 120 0 123 1;
#X connect 121 0 134 0;
#X connect 122 0 133 0;
#X connect 123 0 132 0;
#X connect 125 0 114 0;
#X connect 125 1 113 0;
#X connect 125 2 124 0;
#X connect 126 0 116 0;
#X connect 126 1 115 0;
#X connect 126 2 124 0;
#X connect 127 0 118 0;
#X connect 127 1 117 0;
#X connect 127 2 124 0;
#X connect 128 0 120 0;
#X connect 128 1 119 0;
#X connect 128 2 124 0;
#X connect 129 0 130 0;
#X connect 129 0 143 0;
#X connect 130 0 123 1;
#X connect 130 0 122 1;
#X connect 130 0 121 1;
#X connect 130 0 110 1;
#X connect 130 0 139 1;
#X connect 131 0 111 1;
#X connect 136 0 109 0;
#X connect 136 0 109 1;
#X connect 137 0 108 0;
#X connect 138 0 125 0;
#X connect 138 1 126 0;
#X connect 138 2 127 0;
#X connect 138 3 128 0;
#X connect 138 4 142 0;
#X connect 139 0 140 0;
#X connect 141 0 139 1;
#X connect 142 0 141 0;
#X connect 142 1 148 0;
#X connect 142 2 124 0;
#X connect 144 0 146 0;
#X connect 145 0 144 0;
#X connect 146 1 149 0;
#X connect 148 0 147 1;
#X connect 149 0 151 0;
#X connect 150 0 147 0;
#X connect 151 0 150 0;
#X connect 152 0 153 0;
#X connect 153 0 147 1;
#X restore 1029 126 pd fx;
#N canvas 360 370 1232 657 eq 0;
#X obj 673 542 s /eq2/mid;
#X obj 597 545 s /eq2/low;
#X obj 747 542 s /eq2/high;
#X floatatom 743 514 5 0 0 0 - - -;
#X floatatom 597 513 5 0 0 0 - - -;
#X floatatom 672 509 5 0 0 0 - - -;
#X obj 499 321 tgl 15 0 empty empty empty 17 7 0 10 -262144 -1 -1 0
1;
#X obj 532 321 tgl 15 0 empty empty empty 17 7 0 10 -262144 -1 -1 0
1;
#X obj 565 321 tgl 15 0 empty empty empty 17 7 0 10 -262144 -1 -1 0
1;
#X obj 488 145 route 2 11 12 15 3 4 5 6 7 8;
#X obj 488 89 r \$0-sideButs;
#X obj 488 117 route 72 67;
#X obj 421 245 / 127;
#X obj 490 249 / 127;
#X obj 544 252 / 127;
#X obj 843 397 tgl 20 0 empty empty empty 17 7 0 10 -262144 -1 -1 0
1;
#X obj 922 397 tgl 20 0 empty empty empty 17 7 0 10 -262144 -1 -1 0
1;
#X obj 902 170 route 73 72;
#X obj 902 203 route 0 1;
#X obj 978 204 route 13 14;
#X obj 902 141 r \$0-sideButs;
#X obj 1009 241 / 127;
#X obj 843 241 / 127;
#X floatatom 875 367 5 0 0 0 - - -;
#X floatatom 875 385 5 0 0 0 - - -;
#X floatatom 946 367 5 0 0 0 - - -;
#X obj 864 564 clip 0 1;
#X floatatom 860 593 5 0 0 0 - - -;
#X obj 850 521 phiscale 0 127 0 1;
#X obj 571 452 spigot;
#X obj 631 452 spigot;
#X obj 691 452 spigot;
#X connect 3 0 2 0;
#X connect 4 0 1 0;
#X connect 5 0 0 0;
#X connect 9 4 12 0;
#X connect 9 5 13 0;
#X connect 9 6 14 0;
#X connect 10 0 11 0;
#X connect 11 0 9 0;
#X connect 12 0 6 0;
#X connect 12 0 29 1;
#X connect 13 0 7 0;
#X connect 13 0 30 1;
#X connect 14 0 8 0;
#X connect 14 0 31 1;
#X connect 17 0 18 0;
#X connect 17 1 19 0;
#X connect 18 0 23 0;
#X connect 18 0 28 0;
#X connect 18 1 25 0;
#X connect 19 0 22 0;
#X connect 19 1 21 0;
#X connect 20 0 17 0;
#X connect 21 0 16 0;
#X connect 22 0 15 0;
#X connect 23 0 24 0;
#X connect 26 0 27 0;
#X connect 26 0 31 0;
#X connect 26 0 30 0;
#X connect 26 0 29 0;
#X connect 28 0 26 0;
#X connect 29 0 1 0;
#X connect 30 0 0 0;
#X connect 31 0 2 0;
#X restore 1029 156 pd eq;
#X obj 822 435 r \$0-sideButs;
#X obj 822 458 route 71;
#X obj 822 485 unpack f f;
#X obj 877 508 sel 127;
#X text 821 407 PEDAL;
#X obj 729 611 s pslooperrec_btn;
#X msg 727 583 1;
#X obj 1121 487 s pslooperreset_btn;
#X msg 1121 462 1;
#X obj 888 593 t b;
#X obj 1033 591 t b;
#X obj 1034 617 s pslooperoveroff_btn;
#X obj 884 617 s pslooperoveron_btn;
#X obj 1121 414 input.double.click 400;
#X obj 1121 437 t b;
#X obj 1099 470 bng 15 250 50 0 empty empty empty 17 7 0 10 -262144
-1 -1;
#X obj 147 25;
#X obj 314 34 r korgpstart;
#X connect 2 0 1 0;
#X connect 3 0 2 0;
#X connect 4 0 1 0;
#X connect 5 0 4 0;
#X connect 15 0 17 0;
#X connect 16 0 18 0;
#X connect 17 0 1 0;
#X connect 18 0 1 0;
#X connect 23 0 24 0;
#X connect 25 0 24 0;
#X connect 26 0 24 0;
#X connect 30 0 32 0;
#X connect 31 0 24 0;
#X connect 32 0 31 0;
#X connect 42 0 43 0;
#X connect 43 0 44 0;
#X connect 44 1 45 0;
#X connect 45 0 55 0;
#X connect 45 0 48 0;
#X connect 48 0 47 0;
#X connect 50 0 49 0;
#X connect 51 0 54 0;
#X connect 52 0 53 0;
#X connect 55 0 56 0;
#X connect 56 0 50 0;
#X connect 56 0 52 0;
#X connect 56 0 57 0;
#X restore 559 293 pd korg;
#X obj 286 171 random 100;
#X obj 280 204 + 80;
#X obj 246 231 random 100;
#X obj 240 264 + 80;
#X obj 232 87 metro 400;
#X obj 236 62 tgl 15 0 empty empty empty 17 7 0 10 -262144 -1 -1 1
1;
#X obj 71 159 r psvolume;
#X floatatom 75 215 5 0 0 0 - - -;
#X connect 0 0 4 0;
#X connect 0 1 4 1;
#X connect 2 0 0 0;
#X connect 3 0 0 1;
#X connect 5 0 1 0;
#X connect 6 0 1 1;
#X connect 9 0 10 0;
#X connect 10 0 2 0;
#X connect 11 0 12 0;
#X connect 12 0 3 0;
#X connect 13 0 9 0;
#X connect 13 0 11 0;
#X connect 14 0 13 0;
#X connect 15 0 16 0;
