#N canvas 358 68 1561 1010 16;
#N canvas 281 0 999 688 polyAnything 0;
#X obj 45 20 inlet;
#X obj 291 639 outlet;
#X obj 100 227 data.index;
#X obj 88 117 list.split 1;
#X obj 326 495 poly 5 1;
#X obj 320 427 +;
#X obj 416 235 unpack f f;
#X obj 366 312 clip 0 255;
#X obj 324 458 pack f f;
#X obj 84 174 t a a;
#X obj 343 560 pack f f;
#X obj 302 593 list;
#X obj 275 551 list;
#X obj 688 196 t b b;
#X msg 691 329 stop;
#X obj 328 395 t f f;
#X obj 602 129 bng 15 250 50 0 empty empty empty 17 7 0 10 -262144
-1 -1;
#X obj 329 539 & 255;
#X obj 220 301 expr ($f1+1)*256;
#X obj 371 22 inlet done;
#X obj 639 14 inlet flush;
#X obj 371 70 list.split 1;
#X msg 459 105 \$1 0;
#X obj 820 18 inlet steal;
#X connect 0 0 3 0;
#X connect 2 0 18 0;
#X connect 2 1 18 0;
#X connect 3 0 9 0;
#X connect 3 1 6 0;
#X connect 4 0 12 0;
#X connect 4 1 17 0;
#X connect 4 2 10 1;
#X connect 5 0 8 0;
#X connect 6 0 7 0;
#X connect 6 1 8 1;
#X connect 7 0 5 1;
#X connect 8 0 4 0;
#X connect 9 0 2 0;
#X connect 9 1 12 1;
#X connect 10 0 11 1;
#X connect 11 0 1 0;
#X connect 12 0 11 0;
#X connect 13 0 14 0;
#X connect 13 1 2 1;
#X connect 14 0 4 0;
#X connect 15 0 5 0;
#X connect 16 0 13 0;
#X connect 17 0 10 0;
#X connect 18 0 15 0;
#X connect 19 0 21 0;
#X connect 20 0 13 0;
#X connect 21 0 9 0;
#X connect 21 1 22 0;
#X connect 22 0 6 0;
#X connect 23 0 4 1;
#X restore 369 205 pd polyAnything;
#X obj 122 638 outlet~;
#X obj 475 636 outlet~;
#X obj 346 291 route 1 2 3 4 5;
#X obj 109 16 inlet;
#X obj 99 213 param.group;
#X obj 257 127 loadbang;
#X obj 254 152 dollarg;
#X obj 653 254 param.atom bank SAMPLER;
#X obj 723 273 param.atom fit false;
#X obj 784 307 param.atom timing TIMING;
#X obj 839 351 param.atom loop false;
#X obj 156 517 list;
#X obj 73 414 t a a;
#X obj 280 412 t a a;
#X obj 441 398 t a a;
#X obj 639 392 t a a;
#X obj 820 402 t a a;
#X obj 374 520 list;
#X obj 536 523 list;
#X obj 712 524 list;
#X obj 894 522 list;
#X obj 524 129 param.atom steal true;
#X obj 524 157 != 0;
#X obj 457 90 param.bang flush;
#X obj 95 47 relay bank fit timing loop flush steal;
#N canvas 1 58 1367 637 bslookup 0;
#X obj 60 27 inlet;
#X obj 133 25 inlet;
#X obj 658 597 outlet;
#X obj 250 265 tof/breakpoints;
#X msg 248 239 dump;
#X obj 257 409 flow.prepend lookup;
#X obj 217 130 b;
#X obj 40 265 tof/breakpoints;
#X msg 38 239 dump;
#X obj 47 409 flow.prepend lookup;
#X obj 690 265 tof/breakpoints;
#X msg 688 239 dump;
#X obj 697 409 flow.prepend lookup;
#X obj 470 265 tof/breakpoints;
#X msg 468 239 dump;
#X obj 477 409 flow.prepend lookup;
#X obj 219 158 demultiplex 1 2 3 4 5;
#N canvas 199 133 454 274 override 0;
#X obj 23 46 inlet data;
#X obj 23 199 outlet ovverrides;
#N canvas 335 145 817 623 random_lookup 0;
#X obj 380 116 flow.iter;
#X obj 485 120 expr 1/$f1;
#X obj 337 78 t f f f;
#X obj 65 475 list.build;
#X obj 285 28 t b f b;
#X obj 371 202 *;
#X obj 547 180 random.f 0 127;
#X obj 382 170 demultiplex;
#X floatatom 521 23 5 0 0 0 jump - -, f 5;
#X obj 454 260 *;
#X obj 448 228 random.integer 0 7;
#X obj 398 140 t f b;
#X obj 324 309 random.f 0 127;
#X floatatom 616 29 5 0 0 0 dir - -, f 5;
#X obj 490 327 random.f 0 127;
#X floatatom 728 62 5 0 0 0 speed - -, f 5;
#X obj 331 370 sel 0 1;
#X msg 326 396 1;
#X msg 362 394 -1;
#X obj 343 432 *;
#X obj 370 472 *;
#X obj 526 398 random.integer 0 1;
#X obj 489 370 sel 0 1;
#X msg 482 394 1;
#X obj 522 431 sel 0 1;
#X msg 519 454 0.5;
#X msg 558 454 2;
#X obj 285 230 t f b b;
#X obj 547 202 < 30;
#X obj 331 347 < 30;
#X obj 490 349 < 30;
#X obj 245 457 +;
#X obj 208 435 t f f;
#X obj 201 472 pack;
#X msg 196 501 \$1 1 \$2 0;
#X obj 43 512 list.split -1;
#X obj 276 -39 inlet segments;
#X obj 42 549 outlet;
#X obj 547 -47 param.atom jump 30 0 127;
#X obj 681 19 param.atom speed 30 0 127;
#X obj 600 -18 param.atom direction 30 0 127;
#X connect 0 0 11 0;
#X connect 1 0 5 1;
#X connect 1 0 9 1;
#X connect 1 0 20 1;
#X connect 2 0 0 0;
#X connect 2 2 1 0;
#X connect 3 0 35 0;
#X connect 4 0 3 0;
#X connect 4 1 2 0;
#X connect 5 0 27 0;
#X connect 6 0 28 0;
#X connect 7 0 5 0;
#X connect 7 1 10 0;
#X connect 8 0 28 1;
#X connect 9 0 27 0;
#X connect 10 0 9 0;
#X connect 11 0 7 0;
#X connect 11 1 6 0;
#X connect 12 0 29 0;
#X connect 13 0 29 1;
#X connect 14 0 30 0;
#X connect 15 0 30 1;
#X connect 16 0 17 0;
#X connect 16 1 18 0;
#X connect 17 0 19 0;
#X connect 18 0 19 0;
#X connect 19 0 20 0;
#X connect 20 0 31 1;
#X connect 21 0 24 0;
#X connect 22 0 23 0;
#X connect 22 1 21 0;
#X connect 23 0 19 1;
#X connect 24 0 25 0;
#X connect 24 1 26 0;
#X connect 25 0 19 1;
#X connect 26 0 19 1;
#X connect 27 0 32 0;
#X connect 27 1 12 0;
#X connect 27 2 14 0;
#X connect 28 0 7 1;
#X connect 29 0 16 0;
#X connect 30 0 22 0;
#X connect 31 0 33 1;
#X connect 32 0 33 0;
#X connect 32 1 31 0;
#X connect 33 0 34 0;
#X connect 34 0 3 1;
#X connect 35 0 37 0;
#X connect 36 0 4 0;
#X connect 38 0 8 0;
#X connect 39 0 15 0;
#X connect 40 0 13 0;
#X restore 23 104 pd random_lookup;
#X msg 23 79 8;
#X obj 185 73 tof/breakpoints;
#X obj 23 144 list prepend lookup;
#X obj 23 167 list trim;
#X connect 0 0 3 0;
#X connect 2 0 4 0;
#X connect 2 0 5 0;
#X connect 3 0 2 0;
#X connect 5 0 6 0;
#X connect 6 0 1 0;
#X restore 760 220 pd override lookup;
#X obj 134 487 loadbang;
#X msg 217 538 0 0.5 1 0.5 0;
#X msg 377 538 1 0.5 0 0.5 1;
#X msg 577 543 1 1 0;
#X msg 37 543 0 1 1;
#X connect 0 0 6 0;
#X connect 1 0 16 1;
#X connect 3 1 5 0;
#X connect 4 0 3 0;
#X connect 5 0 2 0;
#X connect 6 0 16 0;
#X connect 7 1 9 0;
#X connect 8 0 7 0;
#X connect 9 0 2 0;
#X connect 10 1 12 0;
#X connect 11 0 10 0;
#X connect 12 0 2 0;
#X connect 13 1 15 0;
#X connect 14 0 13 0;
#X connect 15 0 2 0;
#X connect 16 0 8 0;
#X connect 16 1 4 0;
#X connect 16 2 14 0;
#X connect 16 3 11 0;
#X connect 16 4 17 0;
#X connect 17 0 2 0;
#X connect 18 0 22 0;
#X connect 18 0 19 0;
#X connect 18 0 20 0;
#X connect 18 0 21 0;
#X connect 19 0 3 0;
#X connect 20 0 13 0;
#X connect 21 0 10 0;
#X connect 22 0 7 0;
#X restore 231 708 pd bslookup;
#N canvas 1 58 1367 637 bslookup 0;
#X obj 60 27 inlet;
#X obj 133 25 inlet;
#X obj 658 597 outlet;
#X obj 250 265 tof/breakpoints;
#X msg 248 239 dump;
#X obj 257 409 flow.prepend lookup;
#X obj 217 130 b;
#X obj 40 265 tof/breakpoints;
#X msg 38 239 dump;
#X obj 47 409 flow.prepend lookup;
#X obj 690 265 tof/breakpoints;
#X msg 688 239 dump;
#X obj 697 409 flow.prepend lookup;
#X obj 470 265 tof/breakpoints;
#X msg 468 239 dump;
#X obj 477 409 flow.prepend lookup;
#X obj 219 158 demultiplex 1 2 3 4 5;
#N canvas 199 133 454 274 override 0;
#X obj 23 46 inlet data;
#X obj 23 199 outlet ovverrides;
#N canvas 335 145 817 623 random_lookup 0;
#X obj 380 116 flow.iter;
#X obj 485 120 expr 1/$f1;
#X obj 337 78 t f f f;
#X obj 65 475 list.build;
#X obj 285 28 t b f b;
#X obj 371 202 *;
#X obj 547 180 random.f 0 127;
#X obj 382 170 demultiplex;
#X floatatom 521 23 5 0 0 0 jump - -, f 5;
#X obj 454 260 *;
#X obj 448 228 random.integer 0 7;
#X obj 398 140 t f b;
#X obj 324 309 random.f 0 127;
#X floatatom 616 29 5 0 0 0 dir - -, f 5;
#X obj 490 327 random.f 0 127;
#X floatatom 728 62 5 0 0 0 speed - -, f 5;
#X obj 331 370 sel 0 1;
#X msg 326 396 1;
#X msg 362 394 -1;
#X obj 343 432 *;
#X obj 370 472 *;
#X obj 526 398 random.integer 0 1;
#X obj 489 370 sel 0 1;
#X msg 482 394 1;
#X obj 522 431 sel 0 1;
#X msg 519 454 0.5;
#X msg 558 454 2;
#X obj 285 230 t f b b;
#X obj 547 202 < 30;
#X obj 331 347 < 30;
#X obj 490 349 < 30;
#X obj 245 457 +;
#X obj 208 435 t f f;
#X obj 201 472 pack;
#X msg 196 501 \$1 1 \$2 0;
#X obj 43 512 list.split -1;
#X obj 276 -39 inlet segments;
#X obj 42 549 outlet;
#X obj 547 -47 param.atom jump 30 0 127;
#X obj 681 19 param.atom speed 30 0 127;
#X obj 600 -18 param.atom direction 30 0 127;
#X connect 0 0 11 0;
#X connect 1 0 5 1;
#X connect 1 0 9 1;
#X connect 1 0 20 1;
#X connect 2 0 0 0;
#X connect 2 2 1 0;
#X connect 3 0 35 0;
#X connect 4 0 3 0;
#X connect 4 1 2 0;
#X connect 5 0 27 0;
#X connect 6 0 28 0;
#X connect 7 0 5 0;
#X connect 7 1 10 0;
#X connect 8 0 28 1;
#X connect 9 0 27 0;
#X connect 10 0 9 0;
#X connect 11 0 7 0;
#X connect 11 1 6 0;
#X connect 12 0 29 0;
#X connect 13 0 29 1;
#X connect 14 0 30 0;
#X connect 15 0 30 1;
#X connect 16 0 17 0;
#X connect 16 1 18 0;
#X connect 17 0 19 0;
#X connect 18 0 19 0;
#X connect 19 0 20 0;
#X connect 20 0 31 1;
#X connect 21 0 24 0;
#X connect 22 0 23 0;
#X connect 22 1 21 0;
#X connect 23 0 19 1;
#X connect 24 0 25 0;
#X connect 24 1 26 0;
#X connect 25 0 19 1;
#X connect 26 0 19 1;
#X connect 27 0 32 0;
#X connect 27 1 12 0;
#X connect 27 2 14 0;
#X connect 28 0 7 1;
#X connect 29 0 16 0;
#X connect 30 0 22 0;
#X connect 31 0 33 1;
#X connect 32 0 33 0;
#X connect 32 1 31 0;
#X connect 33 0 34 0;
#X connect 34 0 3 1;
#X connect 35 0 37 0;
#X connect 36 0 4 0;
#X connect 38 0 8 0;
#X connect 39 0 15 0;
#X connect 40 0 13 0;
#X restore 23 104 pd random_lookup;
#X msg 23 79 8;
#X obj 185 73 tof/breakpoints;
#X obj 23 144 list prepend lookup;
#X obj 23 167 list trim;
#X connect 0 0 3 0;
#X connect 2 0 4 0;
#X connect 2 0 5 0;
#X connect 3 0 2 0;
#X connect 5 0 6 0;
#X connect 6 0 1 0;
#X restore 760 220 pd override lookup;
#X obj 134 487 loadbang;
#X msg 37 543 0 1 1;
#X msg 217 538 0 0.5 1 0.5 0;
#X msg 377 538 1 0.5 0 0.5 1;
#X msg 577 543 1 1 0;
#X connect 0 0 6 0;
#X connect 1 0 16 1;
#X connect 3 1 5 0;
#X connect 4 0 3 0;
#X connect 5 0 2 0;
#X connect 6 0 16 0;
#X connect 7 1 9 0;
#X connect 8 0 7 0;
#X connect 9 0 2 0;
#X connect 10 1 12 0;
#X connect 11 0 10 0;
#X connect 12 0 2 0;
#X connect 13 1 15 0;
#X connect 14 0 13 0;
#X connect 15 0 2 0;
#X connect 16 0 8 0;
#X connect 16 1 4 0;
#X connect 16 2 14 0;
#X connect 16 3 11 0;
#X connect 16 4 17 0;
#X connect 17 0 2 0;
#X connect 18 0 19 0;
#X connect 18 0 20 0;
#X connect 18 0 21 0;
#X connect 18 0 22 0;
#X connect 19 0 7 0;
#X connect 20 0 3 0;
#X connect 21 0 13 0;
#X connect 22 0 10 0;
#X restore 361 708 pd bslookup;
#N canvas 1 58 1367 637 bslookup 0;
#X obj 60 27 inlet;
#X obj 133 25 inlet;
#X obj 658 597 outlet;
#X obj 250 265 tof/breakpoints;
#X msg 248 239 dump;
#X obj 257 409 flow.prepend lookup;
#X obj 217 130 b;
#X obj 40 265 tof/breakpoints;
#X msg 38 239 dump;
#X obj 47 409 flow.prepend lookup;
#X obj 690 265 tof/breakpoints;
#X msg 688 239 dump;
#X obj 697 409 flow.prepend lookup;
#X obj 470 265 tof/breakpoints;
#X msg 468 239 dump;
#X obj 477 409 flow.prepend lookup;
#X obj 219 158 demultiplex 1 2 3 4 5;
#N canvas 199 133 454 274 override 0;
#X obj 23 46 inlet data;
#X obj 23 199 outlet ovverrides;
#N canvas 335 145 817 623 random_lookup 0;
#X obj 380 116 flow.iter;
#X obj 485 120 expr 1/$f1;
#X obj 337 78 t f f f;
#X obj 65 475 list.build;
#X obj 285 28 t b f b;
#X obj 371 202 *;
#X obj 547 180 random.f 0 127;
#X obj 382 170 demultiplex;
#X floatatom 521 23 5 0 0 0 jump - -, f 5;
#X obj 454 260 *;
#X obj 448 228 random.integer 0 7;
#X obj 398 140 t f b;
#X obj 324 309 random.f 0 127;
#X floatatom 616 29 5 0 0 0 dir - -, f 5;
#X obj 490 327 random.f 0 127;
#X floatatom 728 62 5 0 0 0 speed - -, f 5;
#X obj 331 370 sel 0 1;
#X msg 326 396 1;
#X msg 362 394 -1;
#X obj 343 432 *;
#X obj 370 472 *;
#X obj 526 398 random.integer 0 1;
#X obj 489 370 sel 0 1;
#X msg 482 394 1;
#X obj 522 431 sel 0 1;
#X msg 519 454 0.5;
#X msg 558 454 2;
#X obj 285 230 t f b b;
#X obj 547 202 < 30;
#X obj 331 347 < 30;
#X obj 490 349 < 30;
#X obj 245 457 +;
#X obj 208 435 t f f;
#X obj 201 472 pack;
#X msg 196 501 \$1 1 \$2 0;
#X obj 43 512 list.split -1;
#X obj 276 -39 inlet segments;
#X obj 42 549 outlet;
#X obj 547 -47 param.atom jump 30 0 127;
#X obj 681 19 param.atom speed 30 0 127;
#X obj 600 -18 param.atom direction 30 0 127;
#X connect 0 0 11 0;
#X connect 1 0 5 1;
#X connect 1 0 9 1;
#X connect 1 0 20 1;
#X connect 2 0 0 0;
#X connect 2 2 1 0;
#X connect 3 0 35 0;
#X connect 4 0 3 0;
#X connect 4 1 2 0;
#X connect 5 0 27 0;
#X connect 6 0 28 0;
#X connect 7 0 5 0;
#X connect 7 1 10 0;
#X connect 8 0 28 1;
#X connect 9 0 27 0;
#X connect 10 0 9 0;
#X connect 11 0 7 0;
#X connect 11 1 6 0;
#X connect 12 0 29 0;
#X connect 13 0 29 1;
#X connect 14 0 30 0;
#X connect 15 0 30 1;
#X connect 16 0 17 0;
#X connect 16 1 18 0;
#X connect 17 0 19 0;
#X connect 18 0 19 0;
#X connect 19 0 20 0;
#X connect 20 0 31 1;
#X connect 21 0 24 0;
#X connect 22 0 23 0;
#X connect 22 1 21 0;
#X connect 23 0 19 1;
#X connect 24 0 25 0;
#X connect 24 1 26 0;
#X connect 25 0 19 1;
#X connect 26 0 19 1;
#X connect 27 0 32 0;
#X connect 27 1 12 0;
#X connect 27 2 14 0;
#X connect 28 0 7 1;
#X connect 29 0 16 0;
#X connect 30 0 22 0;
#X connect 31 0 33 1;
#X connect 32 0 33 0;
#X connect 32 1 31 0;
#X connect 33 0 34 0;
#X connect 34 0 3 1;
#X connect 35 0 37 0;
#X connect 36 0 4 0;
#X connect 38 0 8 0;
#X connect 39 0 15 0;
#X connect 40 0 13 0;
#X restore 23 104 pd random_lookup;
#X msg 23 79 8;
#X obj 185 73 tof/breakpoints;
#X obj 23 144 list prepend lookup;
#X obj 23 167 list trim;
#X connect 0 0 3 0;
#X connect 2 0 4 0;
#X connect 2 0 5 0;
#X connect 3 0 2 0;
#X connect 5 0 6 0;
#X connect 6 0 1 0;
#X restore 760 220 pd override lookup;
#X obj 134 487 loadbang;
#X msg 37 543 0 1 1;
#X msg 217 538 0 0.5 1 0.5 0;
#X msg 377 538 1 0.5 0 0.5 1;
#X msg 577 543 1 1 0;
#X connect 0 0 6 0;
#X connect 1 0 16 1;
#X connect 3 1 5 0;
#X connect 4 0 3 0;
#X connect 5 0 2 0;
#X connect 6 0 16 0;
#X connect 7 1 9 0;
#X connect 8 0 7 0;
#X connect 9 0 2 0;
#X connect 10 1 12 0;
#X connect 11 0 10 0;
#X connect 12 0 2 0;
#X connect 13 1 15 0;
#X connect 14 0 13 0;
#X connect 15 0 2 0;
#X connect 16 0 8 0;
#X connect 16 1 4 0;
#X connect 16 2 14 0;
#X connect 16 3 11 0;
#X connect 16 4 17 0;
#X connect 17 0 2 0;
#X connect 18 0 19 0;
#X connect 18 0 20 0;
#X connect 18 0 21 0;
#X connect 18 0 22 0;
#X connect 19 0 7 0;
#X connect 20 0 3 0;
#X connect 21 0 13 0;
#X connect 22 0 10 0;
#X restore 491 708 pd bslookup;
#N canvas 1 58 1367 637 bslookup 0;
#X obj 60 27 inlet;
#X obj 133 25 inlet;
#X obj 658 597 outlet;
#X obj 250 265 tof/breakpoints;
#X msg 248 239 dump;
#X obj 257 409 flow.prepend lookup;
#X obj 217 130 b;
#X obj 40 265 tof/breakpoints;
#X msg 38 239 dump;
#X obj 47 409 flow.prepend lookup;
#X obj 690 265 tof/breakpoints;
#X msg 688 239 dump;
#X obj 697 409 flow.prepend lookup;
#X obj 470 265 tof/breakpoints;
#X msg 468 239 dump;
#X obj 477 409 flow.prepend lookup;
#X obj 219 158 demultiplex 1 2 3 4 5;
#N canvas 199 133 454 274 override 0;
#X obj 23 46 inlet data;
#X obj 23 199 outlet ovverrides;
#N canvas 335 145 817 623 random_lookup 0;
#X obj 380 116 flow.iter;
#X obj 485 120 expr 1/$f1;
#X obj 337 78 t f f f;
#X obj 65 475 list.build;
#X obj 285 28 t b f b;
#X obj 371 202 *;
#X obj 547 180 random.f 0 127;
#X obj 382 170 demultiplex;
#X floatatom 521 23 5 0 0 0 jump - -, f 5;
#X obj 454 260 *;
#X obj 448 228 random.integer 0 7;
#X obj 398 140 t f b;
#X obj 324 309 random.f 0 127;
#X floatatom 616 29 5 0 0 0 dir - -, f 5;
#X obj 490 327 random.f 0 127;
#X floatatom 728 62 5 0 0 0 speed - -, f 5;
#X obj 331 370 sel 0 1;
#X msg 326 396 1;
#X msg 362 394 -1;
#X obj 343 432 *;
#X obj 370 472 *;
#X obj 526 398 random.integer 0 1;
#X obj 489 370 sel 0 1;
#X msg 482 394 1;
#X obj 522 431 sel 0 1;
#X msg 519 454 0.5;
#X msg 558 454 2;
#X obj 285 230 t f b b;
#X obj 547 202 < 30;
#X obj 331 347 < 30;
#X obj 490 349 < 30;
#X obj 245 457 +;
#X obj 208 435 t f f;
#X obj 201 472 pack;
#X msg 196 501 \$1 1 \$2 0;
#X obj 43 512 list.split -1;
#X obj 276 -39 inlet segments;
#X obj 42 549 outlet;
#X obj 547 -47 param.atom jump 30 0 127;
#X obj 681 19 param.atom speed 30 0 127;
#X obj 600 -18 param.atom direction 30 0 127;
#X connect 0 0 11 0;
#X connect 1 0 5 1;
#X connect 1 0 9 1;
#X connect 1 0 20 1;
#X connect 2 0 0 0;
#X connect 2 2 1 0;
#X connect 3 0 35 0;
#X connect 4 0 3 0;
#X connect 4 1 2 0;
#X connect 5 0 27 0;
#X connect 6 0 28 0;
#X connect 7 0 5 0;
#X connect 7 1 10 0;
#X connect 8 0 28 1;
#X connect 9 0 27 0;
#X connect 10 0 9 0;
#X connect 11 0 7 0;
#X connect 11 1 6 0;
#X connect 12 0 29 0;
#X connect 13 0 29 1;
#X connect 14 0 30 0;
#X connect 15 0 30 1;
#X connect 16 0 17 0;
#X connect 16 1 18 0;
#X connect 17 0 19 0;
#X connect 18 0 19 0;
#X connect 19 0 20 0;
#X connect 20 0 31 1;
#X connect 21 0 24 0;
#X connect 22 0 23 0;
#X connect 22 1 21 0;
#X connect 23 0 19 1;
#X connect 24 0 25 0;
#X connect 24 1 26 0;
#X connect 25 0 19 1;
#X connect 26 0 19 1;
#X connect 27 0 32 0;
#X connect 27 1 12 0;
#X connect 27 2 14 0;
#X connect 28 0 7 1;
#X connect 29 0 16 0;
#X connect 30 0 22 0;
#X connect 31 0 33 1;
#X connect 32 0 33 0;
#X connect 32 1 31 0;
#X connect 33 0 34 0;
#X connect 34 0 3 1;
#X connect 35 0 37 0;
#X connect 36 0 4 0;
#X connect 38 0 8 0;
#X connect 39 0 15 0;
#X connect 40 0 13 0;
#X restore 23 104 pd random_lookup;
#X msg 23 79 8;
#X obj 185 73 tof/breakpoints;
#X obj 23 144 list prepend lookup;
#X obj 23 167 list trim;
#X connect 0 0 3 0;
#X connect 2 0 4 0;
#X connect 2 0 5 0;
#X connect 3 0 2 0;
#X connect 5 0 6 0;
#X connect 6 0 1 0;
#X restore 760 220 pd override lookup;
#X obj 134 487 loadbang;
#X msg 37 543 0 1 1;
#X msg 217 538 0 0.5 1 0.5 0;
#X msg 377 538 1 0.5 0 0.5 1;
#X msg 577 543 1 1 0;
#X connect 0 0 6 0;
#X connect 1 0 16 1;
#X connect 3 1 5 0;
#X connect 4 0 3 0;
#X connect 5 0 2 0;
#X connect 6 0 16 0;
#X connect 7 1 9 0;
#X connect 8 0 7 0;
#X connect 9 0 2 0;
#X connect 10 1 12 0;
#X connect 11 0 10 0;
#X connect 12 0 2 0;
#X connect 13 1 15 0;
#X connect 14 0 13 0;
#X connect 15 0 2 0;
#X connect 16 0 8 0;
#X connect 16 1 4 0;
#X connect 16 2 14 0;
#X connect 16 3 11 0;
#X connect 16 4 17 0;
#X connect 17 0 2 0;
#X connect 18 0 19 0;
#X connect 18 0 20 0;
#X connect 18 0 21 0;
#X connect 18 0 22 0;
#X connect 19 0 7 0;
#X connect 20 0 3 0;
#X connect 21 0 13 0;
#X connect 22 0 10 0;
#X restore 621 708 pd bslookup;
#N canvas 1 58 1367 637 bslookup 0;
#X obj 60 27 inlet;
#X obj 133 25 inlet;
#X obj 658 597 outlet;
#X obj 250 265 tof/breakpoints;
#X msg 248 239 dump;
#X obj 257 409 flow.prepend lookup;
#X obj 217 130 b;
#X obj 40 265 tof/breakpoints;
#X msg 38 239 dump;
#X obj 47 409 flow.prepend lookup;
#X obj 690 265 tof/breakpoints;
#X msg 688 239 dump;
#X obj 697 409 flow.prepend lookup;
#X obj 470 265 tof/breakpoints;
#X msg 468 239 dump;
#X obj 477 409 flow.prepend lookup;
#X obj 219 158 demultiplex 1 2 3 4 5;
#N canvas 199 133 454 274 override 0;
#X obj 23 46 inlet data;
#X obj 23 199 outlet ovverrides;
#N canvas 335 145 817 623 random_lookup 0;
#X obj 380 116 flow.iter;
#X obj 485 120 expr 1/$f1;
#X obj 337 78 t f f f;
#X obj 65 475 list.build;
#X obj 285 28 t b f b;
#X obj 371 202 *;
#X obj 547 180 random.f 0 127;
#X obj 382 170 demultiplex;
#X floatatom 521 23 5 0 0 0 jump - -, f 5;
#X obj 454 260 *;
#X obj 448 228 random.integer 0 7;
#X obj 398 140 t f b;
#X obj 324 309 random.f 0 127;
#X floatatom 616 29 5 0 0 0 dir - -, f 5;
#X obj 490 327 random.f 0 127;
#X floatatom 728 62 5 0 0 0 speed - -, f 5;
#X obj 331 370 sel 0 1;
#X msg 326 396 1;
#X msg 362 394 -1;
#X obj 343 432 *;
#X obj 370 472 *;
#X obj 526 398 random.integer 0 1;
#X obj 489 370 sel 0 1;
#X msg 482 394 1;
#X obj 522 431 sel 0 1;
#X msg 519 454 0.5;
#X msg 558 454 2;
#X obj 285 230 t f b b;
#X obj 547 202 < 30;
#X obj 331 347 < 30;
#X obj 490 349 < 30;
#X obj 245 457 +;
#X obj 208 435 t f f;
#X obj 201 472 pack;
#X msg 196 501 \$1 1 \$2 0;
#X obj 43 512 list.split -1;
#X obj 276 -39 inlet segments;
#X obj 42 549 outlet;
#X obj 547 -47 param.atom jump 30 0 127;
#X obj 681 19 param.atom speed 30 0 127;
#X obj 600 -18 param.atom direction 30 0 127;
#X connect 0 0 11 0;
#X connect 1 0 5 1;
#X connect 1 0 9 1;
#X connect 1 0 20 1;
#X connect 2 0 0 0;
#X connect 2 2 1 0;
#X connect 3 0 35 0;
#X connect 4 0 3 0;
#X connect 4 1 2 0;
#X connect 5 0 27 0;
#X connect 6 0 28 0;
#X connect 7 0 5 0;
#X connect 7 1 10 0;
#X connect 8 0 28 1;
#X connect 9 0 27 0;
#X connect 10 0 9 0;
#X connect 11 0 7 0;
#X connect 11 1 6 0;
#X connect 12 0 29 0;
#X connect 13 0 29 1;
#X connect 14 0 30 0;
#X connect 15 0 30 1;
#X connect 16 0 17 0;
#X connect 16 1 18 0;
#X connect 17 0 19 0;
#X connect 18 0 19 0;
#X connect 19 0 20 0;
#X connect 20 0 31 1;
#X connect 21 0 24 0;
#X connect 22 0 23 0;
#X connect 22 1 21 0;
#X connect 23 0 19 1;
#X connect 24 0 25 0;
#X connect 24 1 26 0;
#X connect 25 0 19 1;
#X connect 26 0 19 1;
#X connect 27 0 32 0;
#X connect 27 1 12 0;
#X connect 27 2 14 0;
#X connect 28 0 7 1;
#X connect 29 0 16 0;
#X connect 30 0 22 0;
#X connect 31 0 33 1;
#X connect 32 0 33 0;
#X connect 32 1 31 0;
#X connect 33 0 34 0;
#X connect 34 0 3 1;
#X connect 35 0 37 0;
#X connect 36 0 4 0;
#X connect 38 0 8 0;
#X connect 39 0 15 0;
#X connect 40 0 13 0;
#X restore 23 104 pd random_lookup;
#X msg 23 79 8;
#X obj 185 73 tof/breakpoints;
#X obj 23 144 list prepend lookup;
#X obj 23 167 list trim;
#X connect 0 0 3 0;
#X connect 2 0 4 0;
#X connect 2 0 5 0;
#X connect 3 0 2 0;
#X connect 5 0 6 0;
#X connect 6 0 1 0;
#X restore 760 220 pd override lookup;
#X obj 134 487 loadbang;
#X msg 37 543 0 1 1;
#X msg 217 538 0 0.5 1 0.5 0;
#X msg 377 538 1 0.5 0 0.5 1;
#X msg 577 543 1 1 0;
#X connect 0 0 6 0;
#X connect 1 0 16 1;
#X connect 3 1 5 0;
#X connect 4 0 3 0;
#X connect 5 0 2 0;
#X connect 6 0 16 0;
#X connect 7 1 9 0;
#X connect 8 0 7 0;
#X connect 9 0 2 0;
#X connect 10 1 12 0;
#X connect 11 0 10 0;
#X connect 12 0 2 0;
#X connect 13 1 15 0;
#X connect 14 0 13 0;
#X connect 15 0 2 0;
#X connect 16 0 8 0;
#X connect 16 1 4 0;
#X connect 16 2 14 0;
#X connect 16 3 11 0;
#X connect 16 4 17 0;
#X connect 17 0 2 0;
#X connect 18 0 19 0;
#X connect 18 0 20 0;
#X connect 18 0 21 0;
#X connect 18 0 22 0;
#X connect 19 0 7 0;
#X connect 20 0 3 0;
#X connect 21 0 13 0;
#X connect 22 0 10 0;
#X restore 771 707 pd bslookup;
#X obj 318 764 r bslu1;
#X obj 478 764 r bslu3;
#X obj 558 764 r bslu4;
#X obj 638 764 r bslu5;
#X obj 398 764 r bslu2;
#X obj 294 463 include/sampler.play.guts~;
#X obj 68 504 include/sampler.play.guts~;
#X obj 571 469 include/sampler.play.guts~;
#X obj 854 466 include/sampler.play.guts~;
#X obj 1154 469 include/sampler.play.guts~;
#X connect 0 0 3 0;
#X connect 3 0 13 0;
#X connect 3 1 14 0;
#X connect 3 2 15 0;
#X connect 3 3 16 0;
#X connect 3 4 17 0;
#X connect 4 0 25 0;
#X connect 6 0 7 0;
#X connect 7 0 5 1;
#X connect 7 1 5 2;
#X connect 8 0 36 1;
#X connect 8 0 37 1;
#X connect 8 0 38 1;
#X connect 8 0 39 1;
#X connect 8 0 40 1;
#X connect 9 0 36 2;
#X connect 9 0 37 2;
#X connect 9 0 38 2;
#X connect 9 0 39 2;
#X connect 9 0 40 2;
#X connect 10 0 36 3;
#X connect 10 0 37 3;
#X connect 10 0 38 3;
#X connect 10 0 39 3;
#X connect 10 0 40 3;
#X connect 11 0 36 4;
#X connect 11 0 37 4;
#X connect 11 0 38 4;
#X connect 11 0 39 4;
#X connect 11 0 40 4;
#X connect 12 0 0 1;
#X connect 13 0 37 0;
#X connect 13 1 12 1;
#X connect 14 0 36 0;
#X connect 14 1 18 1;
#X connect 15 0 38 0;
#X connect 15 1 19 1;
#X connect 16 0 39 0;
#X connect 16 1 20 1;
#X connect 17 0 40 0;
#X connect 17 1 21 1;
#X connect 18 0 0 1;
#X connect 19 0 0 1;
#X connect 20 0 0 1;
#X connect 21 0 0 1;
#X connect 22 0 23 0;
#X connect 23 0 0 3;
#X connect 24 0 0 2;
#X connect 25 0 5 0;
#X connect 25 1 5 0;
#X connect 25 2 5 0;
#X connect 25 3 5 0;
#X connect 25 4 5 0;
#X connect 25 5 5 0;
#X connect 25 6 0 0;
#X connect 26 0 37 5;
#X connect 27 0 36 5;
#X connect 28 0 38 5;
#X connect 29 0 39 5;
#X connect 30 0 40 5;
#X connect 31 0 26 1;
#X connect 32 0 28 1;
#X connect 33 0 29 1;
#X connect 34 0 30 1;
#X connect 35 0 27 1;
#X connect 36 0 1 0;
#X connect 36 1 2 0;
#X connect 36 2 18 0;
#X connect 36 4 27 0;
#X connect 37 0 1 0;
#X connect 37 1 2 0;
#X connect 37 2 12 0;
#X connect 37 4 26 0;
#X connect 38 0 1 0;
#X connect 38 1 2 0;
#X connect 38 2 19 0;
#X connect 38 4 28 0;
#X connect 39 0 1 0;
#X connect 39 1 2 0;
#X connect 39 2 20 0;
#X connect 39 4 29 0;
#X connect 40 0 1 0;
#X connect 40 1 2 0;
#X connect 40 2 21 0;
#X connect 40 4 30 0;
